<?xml version="1.0" encoding="UTF-8" standalone="no"?>
<!-- Created with Inkscape (http://www.inkscape.org/) -->

<svg
   xmlns:dc="http://purl.org/dc/elements/1.1/"
   xmlns:cc="http://creativecommons.org/ns#"
   xmlns:rdf="http://www.w3.org/1999/02/22-rdf-syntax-ns#"
   xmlns:svg="http://www.w3.org/2000/svg"
   xmlns="http://www.w3.org/2000/svg"
   xmlns:xlink="http://www.w3.org/1999/xlink"
   xmlns:sodipodi="http://sodipodi.sourceforge.net/DTD/sodipodi-0.dtd"
   xmlns:inkscape="http://www.inkscape.org/namespaces/inkscape"
   width="359.75845"
   height="346.08517"
   id="svg2474"
   sodipodi:version="0.32"
   inkscape:version="0.46+devel r22415"
   sodipodi:docname="trex.svg"
   inkscape:output_extension="org.inkscape.output.svg.inkscape"
   version="1.1">
  <title
     id="title2913">Dino: very simple BD style T-REX</title>
  <defs
     id="defs2476">
    <linearGradient
       inkscape:collect="always"
       id="linearGradient5389">
      <stop
         style="stop-color:#de00ea;stop-opacity:1;"
         offset="0"
         id="stop5391" />
      <stop
         style="stop-color:#de00ea;stop-opacity:0;"
         offset="1"
         id="stop5393" />
    </linearGradient>
    <linearGradient
       inkscape:collect="always"
       xlink:href="#linearGradient5389"
       id="linearGradient5431"
       gradientUnits="userSpaceOnUse"
       x1="439.89062"
       y1="814.08704"
       x2="514.34344"
       y2="726.2597" />
    <inkscape:perspective
       sodipodi:type="inkscape:persp3d"
       inkscape:vp_x="0 : 526.18109 : 1"
       inkscape:vp_y="0 : 1000 : 0"
       inkscape:vp_z="744.09448 : 526.18109 : 1"
       inkscape:persp3d-origin="372.04724 : 350.78739 : 1"
       id="perspective2482" />
    <linearGradient
       inkscape:collect="always"
       xlink:href="#linearGradient5389"
       id="linearGradient2849"
       gradientUnits="userSpaceOnUse"
       x1="439.89062"
       y1="814.08704"
       x2="514.34344"
       y2="726.2597"
       gradientTransform="matrix(0.7316688,0,0,0.8338155,38.772946,-336.4851)" />
    <linearGradient
       inkscape:collect="always"
       xlink:href="#linearGradient5389"
       id="linearGradient2911"
       gradientUnits="userSpaceOnUse"
       gradientTransform="matrix(0.7316688,0,0,0.8338155,38.772946,-336.4851)"
       x1="439.89062"
       y1="814.08704"
       x2="514.34344"
       y2="726.2597" />
  </defs>
  <sodipodi:namedview
     id="base"
     pagecolor="#ffffff"
     bordercolor="#666666"
     borderopacity="1.0"
     inkscape:pageopacity="0.0"
     inkscape:pageshadow="2"
     inkscape:zoom="0.7"
     inkscape:cx="365.51162"
     inkscape:cy="132.61515"
     inkscape:document-units="px"
     inkscape:current-layer="layer1"
     showgrid="false"
     inkscape:window-width="687"
     inkscape:window-height="669"
     inkscape:window-x="115"
     inkscape:window-y="95"
     inkscape:window-maximized="0" />
  <metadata
     id="metadata2479">
    <rdf:RDF>
      <cc:Work
         rdf:about="">
        <dc:format>image/svg+xml</dc:format>
        <dc:type
           rdf:resource="http://purl.org/dc/dcmitype/StillImage" />
        <dc:title>Dino: very simple BD style T-REX</dc:title>
        <dc:date>2009-10-07</dc:date>
        <dc:creator>
          <cc:Agent>
            <dc:title>Nicolas Dufour (jazzynico)</dc:title>
          </cc:Agent>
        </dc:creator>
        <cc:license
           rdf:resource="http://creativecommons.org/licenses/publicdomain/" />
      </cc:Work>
      <cc:License
         rdf:about="http://creativecommons.org/licenses/publicdomain/">
        <cc:permits
           rdf:resource="http://creativecommons.org/ns#Reproduction" />
        <cc:permits
           rdf:resource="http://creativecommons.org/ns#Distribution" />
        <cc:permits
           rdf:resource="http://creativecommons.org/ns#DerivativeWorks" />
      </cc:License>
    </rdf:RDF>
  </metadata>
  <g
     inkscape:label="Calque 1"
     inkscape:groupmode="layer"
     id="layer1"
     transform="translate(-185.83505,-93.605321)">
    <g
       id="g2879">
      <g
         transform="matrix(0.68233274,0.30099739,-0.26412366,0.77759174,262.98387,-382.07683)"
         id="g3305">
        <path
           id="path3301"
           d="m 339.85268,694.79203 c -54.85393,45.1297 -54.85393,45.1297 -54.85393,45.1297 l -1.3379,1.21972"
           style="fill:none;stroke:#000000;stroke-width:5.1211524;stroke-linecap:butt;stroke-linejoin:miter;stroke-miterlimit:4;stroke-opacity:1;stroke-dasharray:none" />
        <path
           style="fill:none;stroke:#000000;stroke-width:5.1211524;stroke-linecap:butt;stroke-linejoin:miter;stroke-miterlimit:4;stroke-opacity:1;stroke-dasharray:none;stroke-dashoffset:0;marker:none;visibility:visible;display:inline;overflow:visible;enable-background:accumulate"
           d="m 276.6527,732.49347 c 23.59563,-16.5228 25.32332,11.83295 23.73192,12.54935"
           id="path3303"
           sodipodi:nodetypes="cc" />
      </g>
      <path
         transform="matrix(0.32221414,0.24979511,-0.22979932,0.38496411,285.17383,-110.84278)"
         d="m 191.33858,641.212 -20.60679,-12.01999 -20.60678,-12.01999 20.71301,-11.836 20.71301,-11.83601 -0.10623,23.856 -0.10622,23.85599 z"
         inkscape:randomized="0"
         inkscape:rounded="0"
         inkscape:flatsided="false"
         sodipodi:arg2="2.0988478"
         sodipodi:arg1="1.0516502"
         sodipodi:r2="13.773401"
         sodipodi:r1="27.546803"
         sodipodi:cy="617.29468"
         sodipodi:cx="177.67154"
         sodipodi:sides="3"
         id="path3348"
         style="fill:#ffffff;fill-opacity:1;fill-rule:nonzero;stroke:#000000;stroke-width:9.39050865;stroke-linecap:butt;stroke-linejoin:miter;stroke-miterlimit:4;stroke-opacity:1;stroke-dasharray:none;stroke-dashoffset:0;marker:none;visibility:visible;display:inline;overflow:visible;enable-background:accumulate"
         sodipodi:type="star" />
      <path
         sodipodi:type="star"
         style="fill:#ffffff;fill-opacity:1;fill-rule:nonzero;stroke:#000000;stroke-width:9.39050865;stroke-linecap:butt;stroke-linejoin:miter;stroke-miterlimit:4;stroke-opacity:1;stroke-dasharray:none;stroke-dashoffset:0;marker:none;visibility:visible;display:inline;overflow:visible;enable-background:accumulate"
         id="path3350"
         sodipodi:sides="3"
         sodipodi:cx="177.67154"
         sodipodi:cy="617.29468"
         sodipodi:r1="27.546803"
         sodipodi:r2="13.773401"
         sodipodi:arg1="1.0516502"
         sodipodi:arg2="2.0988478"
         inkscape:flatsided="false"
         inkscape:rounded="0"
         inkscape:randomized="0"
         d="m 191.33858,641.212 -20.60679,-12.01999 -20.60678,-12.01999 20.71301,-11.836 20.71301,-11.83601 -0.10623,23.856 -0.10622,23.85599 z"
         transform="matrix(0.32221414,0.24979511,-0.22979932,0.38496411,304.34001,-110.36795)" />
      <path
         transform="matrix(0.32221414,0.24979511,-0.22979932,0.38496411,322.67288,-109.89313)"
         d="m 191.33858,641.212 -20.60679,-12.01999 -20.60678,-12.01999 20.71301,-11.836 20.71301,-11.83601 -0.10623,23.856 -0.10622,23.85599 z"
         inkscape:randomized="0"
         inkscape:rounded="0"
         inkscape:flatsided="false"
         sodipodi:arg2="2.0988478"
         sodipodi:arg1="1.0516502"
         sodipodi:r2="13.773401"
         sodipodi:r1="27.546803"
         sodipodi:cy="617.29468"
         sodipodi:cx="177.67154"
         sodipodi:sides="3"
         id="path3352"
         style="fill:#ffffff;fill-opacity:1;fill-rule:nonzero;stroke:#000000;stroke-width:9.39050865;stroke-linecap:butt;stroke-linejoin:miter;stroke-miterlimit:4;stroke-opacity:1;stroke-dasharray:none;stroke-dashoffset:0;marker:none;visibility:visible;display:inline;overflow:visible;enable-background:accumulate"
         sodipodi:type="star" />
      <path
         sodipodi:type="star"
         style="fill:#ffffff;fill-opacity:1;fill-rule:nonzero;stroke:#000000;stroke-width:9.39050865;stroke-linecap:butt;stroke-linejoin:miter;stroke-miterlimit:4;stroke-opacity:1;stroke-dasharray:none;stroke-dashoffset:0;marker:none;visibility:visible;display:inline;overflow:visible;enable-background:accumulate"
         id="path3354"
         sodipodi:sides="3"
         sodipodi:cx="177.67154"
         sodipodi:cy="617.29468"
         sodipodi:r1="27.546803"
         sodipodi:r2="13.773401"
         sodipodi:arg1="1.0516502"
         sodipodi:arg2="2.0988478"
         inkscape:flatsided="false"
         inkscape:rounded="0"
         inkscape:randomized="0"
         d="m 191.33858,641.212 -20.60679,-12.01999 -20.60678,-12.01999 20.71301,-11.836 20.71301,-11.83601 -0.10623,23.856 -0.10622,23.85599 z"
         transform="matrix(0.32221414,0.24979511,-0.22979932,0.38496411,341.83907,-108.46865)" />
      <path
         transform="matrix(0.32221414,0.24979511,-0.22979932,0.38496411,361.83857,-106.56936)"
         d="m 191.33858,641.212 -20.60679,-12.01999 -20.60678,-12.01999 20.71301,-11.836 20.71301,-11.83601 -0.10623,23.856 -0.10622,23.85599 z"
         inkscape:randomized="0"
         inkscape:rounded="0"
         inkscape:flatsided="false"
         sodipodi:arg2="2.0988478"
         sodipodi:arg1="1.0516502"
         sodipodi:r2="13.773401"
         sodipodi:r1="27.546803"
         sodipodi:cy="617.29468"
         sodipodi:cx="177.67154"
         sodipodi:sides="3"
         id="path3356"
         style="fill:#ffffff;fill-opacity:1;fill-rule:nonzero;stroke:#000000;stroke-width:9.39050865;stroke-linecap:butt;stroke-linejoin:miter;stroke-miterlimit:4;stroke-opacity:1;stroke-dasharray:none;stroke-dashoffset:0;marker:none;visibility:visible;display:inline;overflow:visible;enable-background:accumulate"
         sodipodi:type="star" />
      <path
         inkscape:transform-center-y="-33.586855"
         inkscape:transform-center-x="11.940397"
         transform="matrix(0.06408809,0.43806123,-0.40299498,0.07656901,444.31634,83.351427)"
         d="m 191.33858,641.212 -20.60679,-12.01999 -20.60678,-12.01999 20.71301,-11.836 20.71301,-11.83601 -0.10623,23.856 -0.10622,23.85599 z"
         inkscape:randomized="0"
         inkscape:rounded="0"
         inkscape:flatsided="false"
         sodipodi:arg2="2.0988478"
         sodipodi:arg1="1.0516502"
         sodipodi:r2="13.773401"
         sodipodi:r1="27.546803"
         sodipodi:cy="617.29468"
         sodipodi:cx="177.67154"
         sodipodi:sides="3"
         id="path3360"
         style="fill:#ffffff;fill-opacity:1;fill-rule:nonzero;stroke:#000000;stroke-width:9.39050865;stroke-linecap:butt;stroke-linejoin:miter;stroke-miterlimit:4;stroke-opacity:1;stroke-dasharray:none;stroke-dashoffset:0;marker:none;visibility:visible;display:inline;overflow:visible;enable-background:accumulate"
         sodipodi:type="star" />
      <path
         sodipodi:type="star"
         style="fill:#ffffff;fill-opacity:1;fill-rule:nonzero;stroke:#000000;stroke-width:9.39050865;stroke-linecap:butt;stroke-linejoin:miter;stroke-miterlimit:4;stroke-opacity:1;stroke-dasharray:none;stroke-dashoffset:0;marker:none;visibility:visible;display:inline;overflow:visible;enable-background:accumulate"
         id="path3372"
         sodipodi:sides="3"
         sodipodi:cx="177.67154"
         sodipodi:cy="617.29468"
         sodipodi:r1="27.546803"
         sodipodi:r2="13.773401"
         sodipodi:arg1="1.0516502"
         sodipodi:arg2="2.0988478"
         inkscape:flatsided="false"
         inkscape:rounded="0"
         inkscape:randomized="0"
         d="m 191.33858,641.212 -20.60679,-12.01999 -20.60678,-12.01999 20.71301,-11.836 20.71301,-11.83601 -0.10623,23.856 -0.10622,23.85599 z"
         transform="matrix(0.06408809,0.43806123,-0.40299498,0.07656901,528.89754,67.682216)"
         inkscape:transform-center-x="11.940397"
         inkscape:transform-center-y="-33.586855" />
      <path
         inkscape:transform-center-y="-33.586855"
         inkscape:transform-center-x="11.940397"
         transform="matrix(0.06408809,0.43806123,-0.40299498,0.07656901,506.81477,71.480813)"
         d="m 191.33858,641.212 -20.60679,-12.01999 -20.60678,-12.01999 20.71301,-11.836 20.71301,-11.83601 -0.10623,23.856 -0.10622,23.85599 z"
         inkscape:randomized="0"
         inkscape:rounded="0"
         inkscape:flatsided="false"
         sodipodi:arg2="2.0988478"
         sodipodi:arg1="1.0516502"
         sodipodi:r2="13.773401"
         sodipodi:r1="27.546803"
         sodipodi:cy="617.29468"
         sodipodi:cx="177.67154"
         sodipodi:sides="3"
         id="path3374"
         style="fill:#ffffff;fill-opacity:1;fill-rule:nonzero;stroke:#000000;stroke-width:9.39050865;stroke-linecap:butt;stroke-linejoin:miter;stroke-miterlimit:4;stroke-opacity:1;stroke-dasharray:none;stroke-dashoffset:0;marker:none;visibility:visible;display:inline;overflow:visible;enable-background:accumulate"
         sodipodi:type="star" />
      <path
         sodipodi:type="star"
         style="fill:#ffffff;fill-opacity:1;fill-rule:nonzero;stroke:#000000;stroke-width:9.39050865;stroke-linecap:butt;stroke-linejoin:miter;stroke-miterlimit:4;stroke-opacity:1;stroke-dasharray:none;stroke-dashoffset:0;marker:none;visibility:visible;display:inline;overflow:visible;enable-background:accumulate"
         id="path3376"
         sodipodi:sides="3"
         sodipodi:cx="177.67154"
         sodipodi:cy="617.29468"
         sodipodi:r1="27.546803"
         sodipodi:r2="13.773401"
         sodipodi:arg1="1.0516502"
         sodipodi:arg2="2.0988478"
         inkscape:flatsided="false"
         inkscape:rounded="0"
         inkscape:randomized="0"
         d="m 191.33858,641.212 -20.60679,-12.01999 -20.60678,-12.01999 20.71301,-11.836 20.71301,-11.83601 -0.10623,23.856 -0.10622,23.85599 z"
         transform="matrix(0.06408809,0.43806123,-0.40299498,0.07656901,486.81527,75.754234)"
         inkscape:transform-center-x="11.940397"
         inkscape:transform-center-y="-33.586855" />
      <path
         inkscape:transform-center-y="-33.586855"
         inkscape:transform-center-x="11.940397"
         transform="matrix(0.06408809,0.43806123,-0.40299498,0.07656901,464.73249,79.55283)"
         d="m 191.33858,641.212 -20.60679,-12.01999 -20.60678,-12.01999 20.71301,-11.836 20.71301,-11.83601 -0.10623,23.856 -0.10622,23.85599 z"
         inkscape:randomized="0"
         inkscape:rounded="0"
         inkscape:flatsided="false"
         sodipodi:arg2="2.0988478"
         sodipodi:arg1="1.0516502"
         sodipodi:r2="13.773401"
         sodipodi:r1="27.546803"
         sodipodi:cy="617.29468"
         sodipodi:cx="177.67154"
         sodipodi:sides="3"
         id="path3378"
         style="fill:#ffffff;fill-opacity:1;fill-rule:nonzero;stroke:#000000;stroke-width:9.39050865;stroke-linecap:butt;stroke-linejoin:miter;stroke-miterlimit:4;stroke-opacity:1;stroke-dasharray:none;stroke-dashoffset:0;marker:none;visibility:visible;display:inline;overflow:visible;enable-background:accumulate"
         sodipodi:type="star" />
      <path
         d="m 405.71651,404.93722 c -0.72494,-2.67367 -3.0859,-3.90894 -5.15501,-4.63428 -4.36893,-1.4204 -9.03738,-1.3252 -13.42574,-0.0795 -2.8109,0.87727 -5.57478,2.45452 -7.50866,5.13505 m 26.89425,-0.38169 c -0.48519,-2.03748 -2.49355,-2.75515 -4.12415,-2.73315 -3.5497,0.10655 -7.08802,0.71455 -10.55164,1.63834 -2.83745,0.98626 -5.09371,3.48751 -6.92836,6.11233 -1.41158,2.0668 -2.58018,4.3391 -3.69041,6.63598 m 39.13132,-65.20256 c -13.73851,53.62465 -13.73851,53.62465 -13.73851,53.62465 l -0.29212,1.38641 m -0.16985,-1.14422 c -0.9163,-1.56066 -2.81661,-1.45707 -4.21115,-0.8586 -3.02146,1.35274 -5.91014,3.128 -8.65722,5.14531 -2.1942,1.84782 -3.5178,4.77773 -4.44914,7.66283 -0.70497,2.26 -1.15094,4.60844 -1.54075,6.95702"
         style="fill:none;stroke:#000000;stroke-width:3.99999881;stroke-linecap:butt;stroke-linejoin:miter;stroke-miterlimit:4;stroke-opacity:1;stroke-dasharray:none"
         id="path3412" />
      <path
         sodipodi:nodetypes="cscscssssssscss"
         id="path3229"
         d="m 297.83671,125.99588 c -26.16655,-15.48458 -61.97062,-2.86754 -88.09699,8.02972 -15.45323,6.44552 -25.2254,24.4982 -20.86035,32.38427 0,0 118.0944,-1.55231 117.40998,18.7348 -0.3571,10.33711 -105.97765,27.38562 -105.97765,27.38562 -17.55541,4.53648 5.57247,16.45423 32.39921,11.51708 16.90292,-3.11079 49.89017,-5.91348 56.11531,9.31427 10.61351,25.96248 3.96402,91.78716 52.36786,123.49264 60.62955,39.71355 98.17091,13.96441 118.52291,-5.994 7.70349,-7.55451 29.47131,-34.72901 44.76165,-34.22724 12.69334,0.41655 35.05721,14.43708 38.94542,12.31166 1.93274,-1.05651 -12.72205,-26.9435 -41.19574,-37.09705 -23.42469,-8.35311 -45.08454,9.6979 -88.9428,-19.03014 -47.7864,-34.50988 -69.28055,-52.92325 -78.47229,-99.44753 -3.04574,-15.41607 -6.45575,-29.31283 -36.97652,-47.3741 z"
         style="fill:#800080;fill-opacity:1;fill-rule:nonzero;stroke:#000000;stroke-width:3.99999952;stroke-linecap:butt;stroke-linejoin:miter;stroke-miterlimit:4;stroke-opacity:1;stroke-dasharray:none;stroke-dashoffset:0;marker:none;visibility:visible;display:inline;overflow:visible;enable-background:accumulate" />
      <path
         style="fill:none;stroke:#000000;stroke-width:3.99999952;stroke-linecap:butt;stroke-linejoin:miter;stroke-miterlimit:4;stroke-opacity:1;stroke-dasharray:none;stroke-dashoffset:0;marker:none;visibility:visible;display:inline;overflow:visible;enable-background:accumulate"
         d="m 270.65314,294.42441 c 17.26418,-13.77697 18.52828,9.8665 17.3639,10.46384"
         id="path3299"
         sodipodi:nodetypes="cc" />
      <path
         id="path3269"
         d="m 316.89459,262.98836 c -40.13491,37.62985 -40.13491,37.62985 -40.13491,37.62985 l -0.9789,1.01702"
         style="fill:none;stroke:#000000;stroke-width:3.99999952;stroke-linecap:butt;stroke-linejoin:miter;stroke-miterlimit:4;stroke-opacity:1;stroke-dasharray:none" />
      <path
         transform="matrix(0.6001836,0,0,0.86308918,70.859441,-357.50414)"
         d="m 370.45555,554.66321 c 0,11.56417 -8.29293,20.93879 -18.52278,20.93879 -10.22985,0 -18.52278,-9.37462 -18.52278,-20.93879 0,-11.56418 8.29293,-20.93879 18.52278,-20.93879 10.22985,0 18.52278,9.37461 18.52278,20.93879 z"
         sodipodi:ry="20.938791"
         sodipodi:rx="18.522778"
         sodipodi:cy="554.66321"
         sodipodi:cx="351.93277"
         id="path3313"
         style="fill:#ffffff;fill-opacity:1;fill-rule:nonzero;stroke:#000000;stroke-width:5.55763578;stroke-linecap:butt;stroke-linejoin:miter;stroke-miterlimit:4;stroke-opacity:1;stroke-dasharray:none;stroke-dashoffset:0;marker:none;visibility:visible;display:inline;overflow:visible;enable-background:accumulate"
         sodipodi:type="arc" />
      <path
         transform="matrix(0.6001836,0,0,0.86308918,177.36229,-332.48131)"
         d="m 173.95304,528.08704 c 0,5.78208 -2.52393,10.46939 -5.63737,10.46939 -3.11343,0 -5.63736,-4.68731 -5.63736,-10.46939 0,-5.78209 2.52393,-10.4694 5.63736,-10.4694 3.11344,0 5.63737,4.68731 5.63737,10.4694 z"
         sodipodi:ry="10.469396"
         sodipodi:rx="5.6373668"
         sodipodi:cy="528.08704"
         sodipodi:cx="168.31567"
         id="path3315"
         style="fill:#000000;fill-opacity:1;fill-rule:nonzero;stroke:#000000;stroke-width:5.55763578;stroke-linecap:butt;stroke-linejoin:miter;stroke-miterlimit:4;stroke-opacity:1;stroke-dasharray:none;stroke-dashoffset:0;marker:none;visibility:visible;display:inline;overflow:visible;enable-background:accumulate"
         sodipodi:type="arc" />
      <path
         sodipodi:type="arc"
         style="fill:#ffffff;fill-opacity:1;fill-rule:nonzero;stroke:#000000;stroke-width:6.55492687;stroke-linecap:butt;stroke-linejoin:miter;stroke-miterlimit:4;stroke-opacity:1;stroke-dasharray:none;stroke-dashoffset:0;marker:none;visibility:visible;display:inline;overflow:visible;enable-background:accumulate"
         id="path3325"
         sodipodi:cx="351.93277"
         sodipodi:cy="554.66321"
         sodipodi:rx="18.522778"
         sodipodi:ry="20.938791"
         d="m 370.45555,554.66321 c 0,11.56417 -8.29293,20.93879 -18.52278,20.93879 -10.22985,0 -18.52278,-9.37462 -18.52278,-20.93879 0,-11.56418 8.29293,-20.93879 18.52278,-20.93879 10.22985,0 18.52278,9.37461 18.52278,20.93879 z"
         transform="matrix(0.50886936,0,0,0.73177549,81.515893,-283.00901)" />
      <path
         sodipodi:type="arc"
         style="fill:#000000;fill-opacity:1;fill-rule:nonzero;stroke:#000000;stroke-width:6.55492687;stroke-linecap:butt;stroke-linejoin:miter;stroke-miterlimit:4;stroke-opacity:1;stroke-dasharray:none;stroke-dashoffset:0;marker:none;visibility:visible;display:inline;overflow:visible;enable-background:accumulate"
         id="path3327"
         sodipodi:cx="168.31567"
         sodipodi:cy="528.08704"
         sodipodi:rx="5.6373668"
         sodipodi:ry="10.469396"
         d="m 173.95304,528.08704 c 0,5.78208 -2.52393,10.46939 -5.63737,10.46939 -3.11343,0 -5.63736,-4.68731 -5.63736,-10.46939 0,-5.78209 2.52393,-10.4694 5.63736,-10.4694 3.11344,0 5.63737,4.68731 5.63737,10.4694 z"
         transform="matrix(0.50886936,0,0,0.73177549,173.01914,-261.4575)" />
      <path
         transform="matrix(0.7316688,0,0,0.8338155,30.439823,-327.93826)"
         d="m 236.89538,575.72412 c 0,1.57252 -1.27478,2.8473 -2.8473,2.8473 -1.57252,0 -2.8473,-1.27478 -2.8473,-2.8473 0,-1.57252 1.27478,-2.8473 2.8473,-2.8473 1.57252,0 2.8473,1.27478 2.8473,2.8473 z"
         sodipodi:ry="2.8473003"
         sodipodi:rx="2.8473003"
         sodipodi:cy="575.72412"
         sodipodi:cx="234.04808"
         id="path3380"
         style="fill:#000000;fill-opacity:1;fill-rule:nonzero;stroke:#000000;stroke-width:5.1211524;stroke-linecap:butt;stroke-linejoin:miter;stroke-miterlimit:4;stroke-opacity:1;stroke-dasharray:none;stroke-dashoffset:0;marker:none;visibility:visible;display:inline;overflow:visible;enable-background:accumulate"
         sodipodi:type="arc" />
      <path
         transform="matrix(0.07640188,0.09120191,-0.16085768,0.24997805,405.38258,77.479623)"
         d="m 495.43024,593.37739 -37.8417,-63.5711 -37.84171,-63.57109 73.97503,-0.98633 73.97504,-0.98633 -36.13333,64.55742 -36.13333,64.55743 z"
         inkscape:randomized="0"
         inkscape:rounded="0"
         inkscape:flatsided="false"
         sodipodi:arg2="2.6046613"
         sodipodi:arg1="1.5574638"
         sodipodi:r2="42.713299"
         sodipodi:r1="85.426605"
         sodipodi:cy="507.95837"
         sodipodi:cx="494.29132"
         sodipodi:sides="3"
         id="path3384"
         style="fill:#de00ea;fill-opacity:1;fill-rule:nonzero;stroke:none;stroke-width:4;marker:none;visibility:visible;display:inline;overflow:visible;enable-background:accumulate"
         sodipodi:type="star" />
      <path
         sodipodi:type="star"
         style="fill:#de00ea;fill-opacity:1;fill-rule:nonzero;stroke:none;stroke-width:4;marker:none;visibility:visible;display:inline;overflow:visible;enable-background:accumulate"
         id="path3386"
         sodipodi:sides="3"
         sodipodi:cx="494.29132"
         sodipodi:cy="507.95837"
         sodipodi:r1="85.426605"
         sodipodi:r2="42.713299"
         sodipodi:arg1="1.5574638"
         sodipodi:arg2="2.6046613"
         inkscape:flatsided="false"
         inkscape:rounded="0"
         inkscape:randomized="0"
         d="m 495.43024,593.37739 -37.8417,-63.5711 -37.84171,-63.57109 73.97503,-0.98633 73.97504,-0.98633 -36.13333,64.55742 -36.13333,64.55743 z"
         transform="matrix(0.13282211,0.02968546,-0.0850044,0.25430497,423.55584,156.62453)" />
      <path
         inkscape:transform-center-y="7.2148243"
         inkscape:transform-center-x="11.211376"
         transform="matrix(0.05596834,0.10517715,-0.21023186,0.16471308,421.81036,91.018177)"
         d="m 495.43024,593.37739 -37.8417,-63.5711 -37.84171,-63.57109 73.97503,-0.98633 73.97504,-0.98633 -36.13333,64.55742 -36.13333,64.55743 z"
         inkscape:randomized="0"
         inkscape:rounded="0"
         inkscape:flatsided="false"
         sodipodi:arg2="2.6046613"
         sodipodi:arg1="1.5574638"
         sodipodi:r2="42.713299"
         sodipodi:r1="85.426605"
         sodipodi:cy="507.95837"
         sodipodi:cx="494.29132"
         sodipodi:sides="3"
         id="path3388"
         style="fill:#de00ea;fill-opacity:1;fill-rule:nonzero;stroke:none;stroke-width:4;marker:none;visibility:visible;display:inline;overflow:visible;enable-background:accumulate"
         sodipodi:type="star" />
      <path
         sodipodi:type="star"
         style="fill:#de00ea;fill-opacity:1;fill-rule:nonzero;stroke:none;stroke-width:4;marker:none;visibility:visible;display:inline;overflow:visible;enable-background:accumulate"
         id="path3390"
         sodipodi:sides="3"
         sodipodi:cx="494.29132"
         sodipodi:cy="507.95837"
         sodipodi:r1="85.426605"
         sodipodi:r2="42.713299"
         sodipodi:arg1="1.5574638"
         sodipodi:arg2="2.6046613"
         inkscape:flatsided="false"
         inkscape:rounded="0"
         inkscape:randomized="0"
         d="m 495.43024,593.37739 -37.8417,-63.5711 -37.84171,-63.57109 73.97503,-0.98633 73.97504,-0.98633 -36.13333,64.55742 -36.13333,64.55743 z"
         transform="matrix(0.09917002,0.0586395,-0.13460591,0.24556267,434.45934,135.92177)" />
      <path
         transform="matrix(0.08537675,0.07895496,-0.15118333,0.25583644,422.70468,102.5626)"
         d="m 495.43024,593.37739 -37.8417,-63.5711 -37.84171,-63.57109 73.97503,-0.98633 73.97504,-0.98633 -36.13333,64.55742 -36.13333,64.55743 z"
         inkscape:randomized="0"
         inkscape:rounded="0"
         inkscape:flatsided="false"
         sodipodi:arg2="2.6046613"
         sodipodi:arg1="1.5574638"
         sodipodi:r2="42.713299"
         sodipodi:r1="85.426605"
         sodipodi:cy="507.95837"
         sodipodi:cx="494.29132"
         sodipodi:sides="3"
         id="path3392"
         style="fill:#de00ea;fill-opacity:1;fill-rule:nonzero;stroke:none;stroke-width:4;marker:none;visibility:visible;display:inline;overflow:visible;enable-background:accumulate"
         sodipodi:type="star" />
      <path
         inkscape:transform-center-y="-7.7397035"
         inkscape:transform-center-x="16.939241"
         id="path3432"
         style="fill:none;stroke:#000000;stroke-width:4;stroke-linecap:butt;stroke-linejoin:miter;stroke-miterlimit:4;stroke-opacity:1;stroke-dasharray:none"
         d="m 429.99786,414.07827 c -1.28728,-2.47703 -4.09694,-3.12737 -6.49318,-3.34273 -5.0391,-0.34442 -10.12518,0.88856 -14.69218,3.19511 -2.91065,1.55625 -5.64034,3.79581 -7.2585,6.92805 m 29.33105,-6.93748 c -0.90745,-1.90404 -3.23587,-2.12661 -5.01441,-1.70712 -3.86095,0.97142 -7.61664,2.43778 -11.23224,4.19938 -2.9195,1.67089 -4.92327,4.70382 -6.44326,7.75656 -1.16074,2.39569 -2.01782,4.93611 -2.80653,7.48669 m 30.7143,-74.26137 c -5.09647,56.57695 -5.09647,56.57695 -5.09647,56.57695 l -0.0628,1.44736 m -0.39741,-1.0943 c -1.29053,-1.32562 -3.34883,-0.75938 -4.76265,0.17474 -3.05283,2.07953 -5.88234,4.54606 -8.51225,7.21832 -2.05683,2.3692 -2.96168,5.60014 -3.44598,8.69096 -0.35249,2.41513 -0.40548,4.85489 -0.39704,7.2811" />
      <path
         id="path3436"
         d="m 302.56241,289.65823 c -0.82588,0.0174 -1.6302,0.0688 -2.44651,0.10422 5.54654,24.64405 15.79498,50.52881 41.08777,67.09609 33.28258,21.80074 59.5915,23.87127 79.93482,18.00521 -0.52037,-34.3097 -38.14584,-70.20738 -86.70275,-81.66181 -11.08743,-2.61548 -21.82375,-3.75574 -31.87333,-3.54371 z"
         style="fill:url(#linearGradient2911);fill-opacity:1;fill-rule:nonzero;stroke:#000000;stroke-width:3.99999952;stroke-linecap:butt;stroke-linejoin:miter;stroke-miterlimit:4;stroke-opacity:1;stroke-dasharray:none;stroke-dashoffset:0;marker:none;visibility:visible;display:inline;overflow:visible;enable-background:accumulate" />
      <path
         sodipodi:nodetypes="cz"
         id="path5397"
         d="m 254.60084,99.432259 c 11.94597,7.975381 14.16761,6.063091 30.83257,-3.826938"
         style="fill:none;stroke:#000000;stroke-width:4;stroke-linecap:butt;stroke-linejoin:miter;stroke-miterlimit:4;stroke-opacity:1;stroke-dasharray:none" />
    </g>
  </g>
</svg>
