<?xml version="1.0" encoding="utf-8"?>
<!-- Generator: Adobe Illustrator 12.0.1, SVG Export Plug-In . SVG Version: 6.00 Build 51448)  -->
<!DOCTYPE svg PUBLIC "-//W3C//DTD SVG 1.1//EN" "http://www.w3.org/Graphics/SVG/1.1/DTD/svg11.dtd" [
	<!ENTITY ns_svg "http://www.w3.org/2000/svg">
	<!ENTITY ns_xlink "http://www.w3.org/1999/xlink">
]>
<svg  version="1.1" id="Layer_1" xmlns="&ns_svg;" xmlns:xlink="&ns_xlink;" width="632.489" height="522.606"
	 viewBox="0 0 632.489 522.606" overflow="visible" enable-background="new 0 0 632.489 522.606" xml:space="preserve">
<g>
	<g>
		<path fill="#B2AA7E" d="M573.51,16.396c-2.379,3.396-9.375,1.949-11.234,5.89C557.977,17.145,569.631,9.192,573.51,16.396z"/>
		<path d="M549.637,53.209c1.404,0,2.809,0,4.213,0c1.977,8.267,5.436,15.58-7.021,17.67
			C548.526,65.789,550.631,61.123,549.637,53.209z"/>
		<path d="M612.829,85.604c-5.221-1.566-13.689-16.836-2.807-17.67C604.641,75.789,616.657,79.7,612.829,85.604z"/>
		<path d="M580.532,69.407c1.402,0,2.807,0,4.211,0c-3.312,11.526-0.027,30.789,0,38.285
			C575.03,103.321,579.87,80.309,580.532,69.407z"/>
		<path d="M479.422,78.242c4.227-1.484,2.488,3.281,2.811,5.89C479.762,83.777,479.032,81.599,479.422,78.242z"/>
		<path d="M480.829,85.604c3.068,0.217,3.014,3.71,2.809,7.363C479.459,93.28,478.684,87.716,480.829,85.604z"/>
		<path d="M567.893,85.604c4.934,4.849,1.707,3.073,7.021,0c-1.619,6.994,3.258,12.046,0,16.198
			c-4.016-0.206-2.568-6.142-2.809-10.308c-3.047-0.248-0.637,5.223-1.402,7.363c-2.939-4.14-5.279,0.238-7.023-4.417
			C564.389,90.765,567.415,89.522,567.893,85.604z"/>
		<path fill="#B2AA7E" d="M485.04,106.22c4.514-1.296,1.926,4.854,5.619,4.417c-2.09,3.038-12.193,2.085-12.641-1.472
			C477.387,105.065,485.672,110.319,485.04,106.22z"/>
		<path d="M608.616,120.945c-2.404-3.579,1.096-13.52,7.021-13.253C614.872,113.76,611.241,116.825,608.616,120.945z"/>
		<path d="M496.274,109.165c5.793-0.184,8.795,2.559,15.447,1.472C512.012,118.363,496.834,114.106,496.274,109.165z"/>
		<path d="M605.807,110.637c3.418,0.924,0.744,7.439-2.809,5.891C601.977,112.51,605.79,113.563,605.807,110.637z"/>
		<path fill="#B2AA7E" d="M463.977,115.055c3.703-0.448,3.621,3.075,4.213,5.89c-3.256,0.47-5.393-0.237-7.021-1.473
			C461.663,117.539,463.639,117.156,463.977,115.055z"/>
		<path fill="#B2AA7E" d="M482.233,115.055c6.383,1.895,9.736-1.658,12.637,4.417C491.516,122.892,481.038,121.29,482.233,115.055z"
			/>
		<path d="M532.786,120.945c3.73,0.015,8.02-0.557,9.83,1.473C543.063,126.321,532.875,125.17,532.786,120.945z"/>
		<path fill="#B2AA7E" d="M473.805,122.417c1.416,4.429-3.127,2.609-5.615,2.945C468.528,122.772,470.606,122.005,473.805,122.417z"
			/>
		<path fill="#B2AA7E" d="M486.444,125.362c2.898-3.417,12.5-1.41,14.043,1.473C497.198,130.661,488.838,127.353,486.444,125.362z"
			/>
		<path fill="#B2AA7E" d="M475.209,126.835c2.82-0.501,4.396,0.301,4.213,2.945c-1.402,0-2.809,0-4.213,0
			C475.209,128.798,475.209,127.816,475.209,126.835z"/>
		<path fill="#B2AA7E" d="M468.19,132.725c-3.971,1.217-3.641-2.075-7.021-1.473C460.758,127.429,470.665,126.136,468.19,132.725z"
			/>
		<path fill="#B2AA7E" d="M456.956,131.252c0.203,4.141-3.441,4.247-7.021,4.417C450.553,130.501,452.893,129.426,456.956,131.252z"
			/>
		<path fill="#B2AA7E" d="M476.614,134.198c-1.291,2.571-4.391,3.25-8.424,2.945C469.317,134.019,473.971,131.401,476.614,134.198z"
			/>
		<path fill="#B2AA7E" d="M462.571,135.669c0.205,4.141-3.438,4.247-7.021,4.418C456.522,137.179,459.295,136.162,462.571,135.669z"
			/>
		<path fill="#B2AA7E" d="M445.721,140.088c0.203-0.568,2.973-2.604,4.213-1.473C452.709,141.144,443.735,145.639,445.721,140.088z"
			/>
		<path fill="#B2AA7E" d="M468.19,140.088c-0.926,1.976-3.004,2.742-5.619,2.945C463.842,140.467,465.713,137.36,468.19,140.088z"/>
		<path fill="#B2AA7E" d="M456.956,143.033c-0.34,2.59-2.418,3.356-5.619,2.945C451.676,143.387,453.754,142.621,456.956,143.033z"
			/>
		<path fill="#B2AA7E" d="M442.913,144.505c1.844,0.52,2.209,2.592,4.213,2.945c-1.107,2.904-4.912,5.294-7.021,2.945
			C439.081,146.377,442.893,147.431,442.913,144.505z"/>
		<path d="M434.487,147.45c-0.418,2.998-2.812,3.922-4.213,5.89C426.52,151.628,430.149,145.525,434.487,147.45z"/>
		<path fill="#B2AA7E" d="M451.336,150.396c-0.494,1.934-2.471,2.316-2.807,4.417C445.032,154.213,448.446,149.104,451.336,150.396z
			"/>
		<path fill="#B2AA7E" d="M438.7,154.813c1.137,0.279,1.398,1.477,2.807,1.472c-0.412,3.002-3.797,2.887-4.211,5.89
			c-1.139-0.28-1.398-1.478-2.809-1.473C434.899,157.7,438.286,157.815,438.7,154.813z"/>
		<path fill="#B2AA7E" d="M444.317,159.23c3.496,0.599,0.084,5.709-2.811,4.418C442.004,161.714,443.981,161.332,444.317,159.23z"/>
		<path fill="#B2AA7E" d="M434.487,165.12c-0.496,1.935-2.475,2.316-2.811,4.417c-2.518,0.187-2.961-1.802-5.615-1.472
			C426.838,164.574,431.491,161.955,434.487,165.12z"/>
		<path fill="#B2AA7E" d="M417.635,166.593c1.729,0.643,2.883,1.884,2.809,4.417c-2.268,0.415-2.416-1.392-4.211-1.473
			C416.497,168.345,417.641,168.07,417.635,166.593z"/>
		<path d="M392.358,169.537c0.936,0,1.872,0,2.811,0c0.395,2.379-1.33,2.536-1.405,4.418c-0.937,0-1.871,0-2.81,0
			C390.558,171.577,392.282,171.42,392.358,169.537z"/>
		<path fill="#B2AA7E" d="M416.231,173.956c0.422,3.879-1.945,4.832-5.617,4.417C411.836,176.217,412.715,173.705,416.231,173.956z"
			/>
		<path fill="#B2AA7E" d="M404.999,176.9c0.895,5.357-2.908,5.786-7.023,5.89C397.774,178.161,401.577,177.731,404.999,176.9z"/>
		<path fill="#B2AA7E" d="M421.848,178.373c-0.613,1.811-1.797,3.023-4.213,2.945C418.247,179.506,419.432,178.294,421.848,178.373z
			"/>
		<path fill="#B2AA7E" d="M386.741,179.845c0,1.473,0,2.945,0,4.417c-2.519,0.188-2.962-1.802-5.615-1.473
			C381.461,180.2,383.54,179.434,386.741,179.845z"/>
		<path fill="#B2AA7E" d="M410.614,181.318c-0.613,1.811-1.797,3.024-4.213,2.945C407.014,182.451,408.198,181.238,410.614,181.318z
			"/>
		<path fill="#B2AA7E" d="M395.168,184.263c-0.34,2.59-2.418,3.357-5.619,2.945C389.721,181.753,391.592,183.503,395.168,184.263z"
			/>
		<path fill="#B2AA7E" d="M402.188,187.208c-0.34,2.591-2.416,3.356-5.618,2.945C395.157,185.724,399.7,187.543,402.188,187.208z"/>
		<path fill="#B2AA7E" d="M382.528,188.681c2.936-0.624,3.719,1.009,5.616,1.472c-0.7,3.864-4.56,8.298-8.425,4.417
			C379.738,191.644,383.551,192.698,382.528,188.681z"/>
		<path fill="#B2AA7E" d="M409.209,188.681c1.416,4.428-3.129,2.609-5.617,2.945C403.93,189.035,406.008,188.269,409.209,188.681z"
			/>
		<path fill="#B2AA7E" d="M364.271,191.625c3.583,0.17,7.226,0.277,7.022,4.417C367.272,196.333,363.629,196.226,364.271,191.625z"
			/>
		<path fill="#B2AA7E" d="M390.954,191.625c1.129,0.779,2.279,1.536,4.215,1.472c0.662,4.623-3.78,3.89-4.215,7.363
			C385.4,198.89,391.311,195.994,390.954,191.625z"/>
		<path fill="#B2AA7E" d="M403.592,196.043c-1.912,3.394-2.463,8.217-8.424,7.363C395.686,198.655,399.237,192.214,403.592,196.043z
			"/>
		<path fill="#B2AA7E" d="M379.72,200.46c-2.482,2.735-4.101-0.64-7.021-1.473C372.958,194.464,380.262,195.897,379.72,200.46z"/>
		<path fill="#B2AA7E" d="M360.061,197.516c4.322-1.098,2.697,4.042,7.021,2.945C366.286,205.661,360.476,201.21,360.061,197.516z"
			/>
		<path d="M309.506,201.933c-1.791,3.031-2.24,7.468-7.021,7.363C303.286,205.227,303.971,201.038,309.506,201.933z"/>
		<path fill="#B2AA7E" d="M381.125,203.406C386.351,198.265,388.249,207.42,381.125,203.406L381.125,203.406z"/>
		<path fill="#B2AA7E" d="M375.506,207.823c-3.967,1.216-3.637-2.076-7.021-1.473C368.607,201.97,376.858,202.41,375.506,207.823z"
			/>
		<path fill="#B2AA7E" d="M369.89,215.185c-1.795,2.014-6.63,2.014-8.425,0C362.512,210.894,370.788,205.417,369.89,215.185z"/>
		<path fill="#B2AA7E" d="M388.145,210.768c-0.613,1.812-1.796,3.024-4.212,2.945C383.276,210.571,385.938,210.908,388.145,210.768z
			"/>
		<path fill="#B2AA7E" d="M395.168,212.241c-0.613,1.811-1.799,3.024-4.215,2.944C390.299,212.043,392.961,212.381,395.168,212.241z
			"/>
		<path fill="#B2AA7E" d="M350.23,213.713c4.388-0.673,4.489,3.146,4.212,7.363C348.762,222.726,347.499,216.553,350.23,213.713z"/>
		<path fill="#B2AA7E" d="M378.315,215.185c0.336,4.952-5.216,7.609-8.426,4.418C371.566,216.761,374.697,211.566,378.315,215.185z"
			/>
		<path fill="#B2AA7E" d="M382.528,216.658c4.396,0.358,2.373,7.329-2.809,5.89C380.452,220.369,381.797,218.837,382.528,216.658z"
			/>
		<path fill="#B2AA7E" d="M358.657,218.13c2.055,1.281,4.45,2.205,4.213,5.89c-1.847,1.89-5.178,1.89-7.022,0
			C356.579,221.842,357.924,220.309,358.657,218.13z"/>
		<path fill="#B2AA7E" d="M369.89,224.021c-0.171,3.747-2.043,5.71-5.618,5.89C363.62,225.301,365.493,223.337,369.89,224.021z"/>
		<path d="M353.038,228.438c0,1.472,0,2.945,0,4.417c-5.25-0.874-10.481-1.768-11.233-7.362
			C347.176,224.767,346.29,230.607,353.038,228.438z"/>
		<path fill="#B2AA7E" d="M379.72,226.965c3.497,0.599,0.084,5.708-2.81,4.418C377.407,229.449,379.383,229.067,379.72,226.965z"/>
		<path fill="#B2AA7E" d="M389.549,228.438c-0.612,1.811-1.797,3.024-4.213,2.945C384.681,228.241,387.342,228.578,389.549,228.438z
			"/>
		<path fill="#B2AA7E" d="M361.465,232.855c3.062-0.266,4.467,1.206,4.211,4.418C362.614,237.54,361.209,236.068,361.465,232.855z"
			/>
		<path fill="#B2AA7E" d="M389.549,241.691c1.729,0.643,2.885,1.884,2.81,4.417C390.631,245.465,389.475,244.224,389.549,241.691z"
			/>
		<path d="M341.804,349.184c-2.496,1.309-3.569,4.111-8.425,2.943c-9.168-10.467-3.379-23.756-4.213-36.811
			c-1.367-21.427-19.198-43.199-5.617-64.793c5.328,5.874,0.041,9.103,0,14.727c-0.102,14.108,7.687,25.758,9.83,39.756
			c1.783,11.641-2.625,22.367,0,33.867c5.351-0.279,0.86-10.875,4.213-13.25c5.852,2.699,4.066,13.402,7.021,19.141
			c1.14-0.279,1.401-1.477,2.81-1.473c3.195-1.092-4.039-11.275,0-13.252c6.07,2.104,4.856,15.918,9.83,14.725
			c-0.244-6.641-2.01-24.379-2.81-35.34c-1.428,0.957-1.452,3.385-4.212,2.945c1.186-6.15-2.73-6.955-2.809-11.779
			c1.845-1.769,2.207-0.573,4.213,0c-3.049-11.586-2.367-20.662,0-32.396c3.609,0.144,2.008,5.747,5.617,5.89
			c-7.826,14.576,0.429,28.139,2.809,41.23c2.445,13.461,1.49,27.893,5.615,41.229c-1.133,1.266-3.846,0.875-4.211,2.945
			c-4.58,0.383-6.76-1.748-7.022-5.891c-4.257-0.047-1.358,7.408-5.616,7.363C344.463,359.155,342.663,354.667,341.804,349.184z
			 M337.59,346.241c0.256-3.213-1.148-4.688-4.213-4.42C333.124,345.034,334.528,346.506,337.59,346.241z M361.465,350.655
			c-1.857-0.016-1.284-2.58-2.809-2.943C355.234,349.417,360.223,354.647,361.465,350.655z M346.017,350.655
			C349.411,358.229,349.646,345.586,346.017,350.655L346.017,350.655z"/>
		<path fill="#B2AA7E" d="M201.377,299.12c-6.307-0.725-10.522,0.746-15.447,1.473C187.503,297.649,199.611,292.295,201.377,299.12z
			"/>
		<path d="M392.358,296.172c3.473,1.656,5.191,10.018,2.811,13.254C392.948,306.352,392.254,301.681,392.358,296.172z"/>
		<path fill="#B2AA7E" d="M181.717,299.12C177.189,303.625,171.21,297.355,181.717,299.12L181.717,299.12z"/>
		<path d="M250.526,302.064c-0.095,3.965-3.21,7.077-5.617,4.416C244.486,302.602,246.854,301.648,250.526,302.064z"/>
		<path fill="#B2AA7E" d="M174.695,305.008c-1.412,4.408-8.462,2.906-12.638,4.418C163.864,305.431,169.036,304.963,174.695,305.008
			z"/>
		<path d="M242.101,310.899c1.404,0,2.809,0,4.212,0c0.365,4.801-1.667,7.088-5.617,7.361
			C239.536,314.098,242.675,314.448,242.101,310.899z"/>
		<path fill="#B2AA7E" d="M121.333,316.788c2.5,1.082,0.202,2.68,0,4.42C118.833,320.127,121.131,318.528,121.333,316.788z"/>
		<path d="M395.168,327.096c1.016-3.35,1.25-7.521,2.807-10.309C401.948,318.329,401.813,326.637,395.168,327.096z"/>
		<path d="M239.292,319.735c5.425,1.977,1.914,14.229-2.809,14.725C233.908,330.682,239.084,325.194,239.292,319.735z"/>
		<path fill="#B2AA7E" d="M409.209,322.678c0.914-4.15,1.631,3.393,1.404,4.418C409.963,330.053,407.975,328.286,409.209,322.678z"
			/>
		<path d="M121.333,330.042c0.423,3.881-1.945,4.832-5.617,4.418C115.289,330.575,118.647,330.661,121.333,330.042z"/>
		<path d="M110.099,331.514c6.052,2.049-1.441,7.189-5.617,7.361C103.889,333.838,108.688,334.454,110.099,331.514z"/>
		<path fill="#E6E5D3" d="M333.377,341.821c3.064-0.268,4.469,1.207,4.213,4.42C334.528,346.506,333.124,345.034,333.377,341.821z"
			/>
		<path fill="#B2AA7E" d="M83.418,346.241c-1.164,5.16-5.598,6.891-9.83,8.834C75.161,350.342,78.521,347.485,83.418,346.241z"/>
		<path d="M145.206,347.711c3.256-0.471,5.392,0.234,7.021,1.473C152.637,353.006,142.732,354.299,145.206,347.711z"/>
		<path fill="#E6E5D3" d="M358.657,347.711c1.524,0.363,0.951,2.928,2.809,2.943C360.223,354.647,355.234,349.417,358.657,347.711z"
			/>
		<path fill="#E6E5D3" d="M346.017,350.655C349.646,345.586,349.411,358.229,346.017,350.655L346.017,350.655z"/>
		<path d="M86.227,355.075c-1.293,3.576-5.62,8.396-8.426,5.891C79.298,357.625,82.06,355.614,86.227,355.075z"/>
		<path fill="#B2AA7E" d="M138.185,358.018c-0.157,3.764-4.702,2.924-8.425,2.947C129.717,356.614,136.26,355.979,138.185,358.018z"
			/>
		<path fill="#B2AA7E" d="M183.122,359.493c0.174-3.254,5.957-0.625,8.425-1.475C191.372,361.272,185.59,358.643,183.122,359.493z"
			/>
		<path d="M294.059,359.493c-5.089,3.988-13.481,4.516-19.66,7.361C274.993,358.76,287.097,356.137,294.059,359.493z"/>
		<path d="M327.762,372.745c-9.846-2.438-13.194-11.689-26.682-10.309c-2.388,0.541-2.649-1.148-2.808-2.943
			C310.703,355.522,324.059,362.715,327.762,372.745z"/>
		<path d="M100.27,363.909c-0.984-5.098,4.923-5.281,7.021-2.943C107.083,364.182,103.752,364.125,100.27,363.909z"/>
		<path fill="#B2AA7E" d="M125.546,362.436c3.264,2.574-3.645,6.879-8.426,5.891C118.652,365.026,124.014,365.739,125.546,362.436z"
			/>
		<path d="M90.439,363.909c1.137,0.281,1.4,1.477,2.808,1.473c0,0.982,0,1.963,0,2.945c-3.383-0.604-3.052,2.688-7.021,1.473
			C84.995,365.073,89.868,366.747,90.439,363.909z"/>
		<path fill="#B2AA7E" d="M149.418,365.379c2.404-3.367,10.72-0.537,15.447-1.471C161.783,366.356,153.377,368.458,149.418,365.379z
			"/>
		<path d="M295.463,365.379c-4.512,8.031-13.415,11.459-15.447,22.09C274.081,379.549,284.999,365.723,295.463,365.379z"/>
		<path d="M268.782,366.854c5.425,2.807-3.137,14.955-2.808,22.088C260.212,384.977,265.482,370.745,268.782,366.854z"/>
		<path fill="#B2AA7E" d="M58.141,368.327c-2.812,2.941-4.103,7.479-8.426,8.836C51.715,373.368,53.005,368.833,58.141,368.327z"/>
		<path fill="#B2AA7E" d="M110.099,368.327c-1.354,2.998-5.392,3.18-9.829,2.945C102.395,369.083,106.433,368.899,110.099,368.327z"
			/>
		<path d="M275.803,368.327c6.152,3.264-2.461,7.504-2.809,13.252c-0.587,9.73,3.954,16.762,8.426,23.561
			C267.117,408.758,265.558,375.081,275.803,368.327z"/>
		<path fill="#B2AA7E" d="M246.313,378.633c2.352-4.24,1.118,7.525,1.405,10.309C245.367,393.182,246.601,381.417,246.313,378.633z"
			/>
		<path fill="#B2AA7E" d="M296.868,383.051c-0.237-3.193,4.98-0.668,7.021-1.473C304.125,384.772,298.908,382.247,296.868,383.051z"
			/>
		<path fill="#B2AA7E" d="M49.715,383.051C57.937,385.01,44.631,390.006,49.715,383.051L49.715,383.051z"/>
		<path fill="#B2AA7E" d="M291.25,388.942c0.605-3.291,6.92-0.598,9.83-1.473C300.475,390.762,294.159,388.065,291.25,388.942z"/>
		<path fill="#B2AA7E" d="M299.676,393.36C296.593,397.858,290.682,391.661,299.676,393.36L299.676,393.36z"/>
		<path fill="#E6E5D3" d="M417.635,397.778c1.617-4.766,1.59,3.955,1.402,5.891C417.422,408.43,417.45,399.711,417.635,397.778z"/>
		<path fill="#B2AA7E" d="M303.889,397.778c1.31,1.57,5.18,0.457,4.212,4.416C305.039,402.461,303.634,400.991,303.889,397.778z"/>
		<path fill="#E6E5D3" d="M410.614,399.249c3.91-0.662-1.104,8.027,2.809,7.363c-2.797,5.156-3.207-4.32-5.617-4.418
			C408.153,400.594,410.598,401.198,410.614,399.249z"/>
		<path fill="#E6E5D3" d="M403.592,402.194c-1.85,3.461-3.914,6.693-2.809,13.254C395.394,415.141,396.981,399.448,403.592,402.194z
			"/>
		<path fill="#B2AA7E" d="M316.528,405.139C313.215,409.875,310.851,399.959,316.528,405.139L316.528,405.139z"/>
		<path fill="#E6E5D3" d="M393.763,406.612c0.534-2.803,1.786,0.939,1.405,2.943C394.633,412.36,393.379,408.618,393.763,406.612z"
			/>
		<path d="M382.528,408.084c4.314-2.254,4.314,9.615,0,7.361C382.528,412.993,382.528,410.54,382.528,408.084z"/>
		<path fill="#B2AA7E" d="M371.295,411.03c0.912-4.152,1.629,3.393,1.404,4.418C372.047,418.405,370.061,416.635,371.295,411.03z"/>
		<path fill="#B2AA7E" d="M288.442,436.063c4.224-1.484,2.488,3.279,2.808,5.891C288.78,441.598,288.049,439.418,288.442,436.063z"
			/>
		<path fill="#B2AA7E" d="M313.719,436.063c1.404,0,2.808,0,4.213,0c0.396,3.852-0.514,6.334-4.213,5.891
			C313.719,439.989,313.719,438.026,313.719,436.063z"/>
		<path fill="#B2AA7E" d="M294.059,439.006c2.125-5.199,2.664,2.713,1.404,2.945C294.633,442.106,293.7,439.883,294.059,439.006z"/>
		<path fill="#B2AA7E" d="M299.676,437.536c3.064-0.27,4.467,1.205,4.213,4.418c-1.404,0-2.809,0-4.213,0
			C299.676,440.481,299.676,439.006,299.676,437.536z"/>
		<path fill="#B2AA7E" d="M306.697,437.536c1.404,0,2.809,0,4.213,0c0,1.473,0,2.945,0,4.418c-1.404,0-2.809,0-4.213,0
			C306.697,440.481,306.697,439.006,306.697,437.536z"/>
		<path fill="#B2AA7E" d="M301.08,446.37c0.937,0,1.873,0,2.809,0c0,0.982,0,1.963,0,2.945c-0.936,0-1.872,0-2.809,0
			C301.08,448.333,301.08,447.352,301.08,446.37z"/>
		<path fill="#B2AA7E" d="M308.102,446.37c2.268-0.414,2.417,1.393,4.213,1.473C312.871,450.7,305.918,449.993,308.102,446.37z"/>
		<path fill="#B2AA7E" d="M285.633,449.315c0.936,0,1.873,0,2.809,0c0,0.98,0,1.963,0,2.945c-0.937,0-1.873,0-2.809,0
			C285.633,451.278,285.633,450.295,285.633,449.315z"/>
		<path fill="#B2AA7E" d="M292.655,450.788c2.818-0.502,4.394,0.301,4.213,2.943c-1.404,0-2.809,0-4.213,0
			C292.655,452.75,292.655,451.768,292.655,450.788z"/>
		<path fill="#B2AA7E" d="M299.676,452.26c1.872,0,3.744,0,5.618,0c1.415,4.428-3.129,2.609-5.618,2.943
			C299.676,454.223,299.676,453.241,299.676,452.26z"/>
		<path fill="#E6E5D3" d="M347.42,461.094c0.535-2.803,1.787,0.941,1.406,2.945C348.292,466.84,347.04,463.1,347.42,461.094z"/>
		<path fill="#E6E5D3" d="M351.635,468.458c2.734,2.529,3.025,7.625,2.808,13.252C348.75,482.282,352.896,472.534,351.635,468.458z"
			/>
		<path d="M267.377,471.403c5.6,2.965,11.222,5.902,11.234,14.727C272.525,483.676,270.513,476.95,267.377,471.403z"/>
		<path fill="#E6E5D3" d="M264.569,487.6c-4.475,3.158-1.315,14.326-4.213,19.143C251.317,505.489,252.892,479.538,264.569,487.6z"
			/>
		<path fill="#E6E5D3" d="M333.377,489.073c2.135,3.709,3.953,15.414,2.81,17.67C328.444,508.362,332.297,492.034,333.377,489.073z"
			/>
		<path fill="#E6E5D3" d="M340.4,506.743c-2.812-6.148-1.56-17.211,0-8.834C340.816,500.147,343.097,502.266,340.4,506.743z"/>
		<path fill="#B2AA7E" d="M618.446,84.132c3.096,0.622,7.746-4.41,4.213-5.89c1.787-3.189,5.127,4.325,4.213,8.835
			c-2.043-2.165-9.189-2.165-11.232,0c0.295,9.833,10.928,0.076,12.639,2.945c0.566,6.484-6.732,4.723-4.213,13.253
			c-6.324-9.763-8.57,19.714-16.854,22.087c-10.984-0.25-18.219-10.66-28.084-14.725c-15.293-6.301-32.521-6.903-44.938-17.67
			c-3.16-2.577-3.234-8.388-8.426-8.835c5.279,26.373,45.883,28.456,67.406,42.703c2.785,4.341-5.455-5.507-7.023-1.473
			c1.152,4.681,6.027,5.46,9.83,7.363c2.486,3.934-5.891-1.379-8.426-1.473c-2.014,2.156-1.076,4.668,2.811,4.417
			c-7.998,2.312-20.295-4.032-26.684-1.472c-3.172-0.825,1.703-2.298-1.404-4.418c-7.828-1.002-14.904,4.832-14.041-2.945
			c-16.199-3.539-38.545,5.276-49.15-5.89c2.629,0.238,15.295,2.578,23.873,1.473c-4.43-5.662-17.898-1.846-25.277-4.418
			c-4.477-7.575-7.145-17.048-12.639-23.56c-3.307,1.243,0.088,7.592,1.404,8.835c-0.176,3.252-5.957,0.625-8.426,1.473
			c-3.537-2.67-2.943-9.674-7.02-11.78c-1.139,0.28-1.4,1.477-2.809,1.473c1.379,7.269,8.922,14.676,7.02,20.615
			c-5.936-6.523-9.977-1.91-18.254,0c-3.717-3.957-5.525-9.913-9.83-13.252c-5.365,7.771,10.395,17.083,14.043,25.033
			c-7.941-2.222-10.18-0.429-14.043,4.417c-2.967-1.308-4.15-4.482-8.426-4.417c-0.904,6.348,5.889,4.623,5.617,10.308
			c-2.936-0.624-3.721,1.009-5.617,1.472c5.885,5.354-7.672,7.775-1.404,13.253c-4.328,5.277-9.131,10.058-15.447,13.252
			c-1.045-4.532,3.855-2.83,2.809-7.363c-6.508,1.259-8.926,10.516-16.852,5.891c-1.193,5.559,4.664,6.913,1.404,10.308
			c-7.418-4.409-11.311,2.518-15.446,5.89c-5.437-2.644-8.31-7.976-14.044-10.308c-7.037,1.999,4.533,6.648,0,10.308
			c-3.83,1.073-2.825-2.926-5.615-2.945c-4.848,1.295,0.35,5.915-2.809,10.308c4.422,0.712,3.179-4.52,8.424-2.945
			c3.393,3.421-2.192,3.942-2.809,7.363c-5.935-1.629-8.914-6.359-15.445-7.363c-4.725,2.377,4.414,4.663,0,7.363
			c-3.238-1.514-4.529-5.069-9.83-4.418c-0.387,5.805,6.003,4.503,5.617,10.308c-2.676-0.632-3.528-3.172-7.021-2.945
			c0.797,7.636,6.364,6.19,1.404,13.253c6.058-2.058,5.175-5.582,11.234-1.473c-5.047,15.754-17.234-6.966-23.873-2.944
			c-0.642,7.051,9.553,2.744,7.021,11.779c-8.372-1.528-10.459-9.646-21.063-8.835c11.228,8.352,21.187,18.032,33.703,25.033
			c-0.436,1.998-3.518,1.221-5.619,1.472c2.527,8.641,12.142,9.849,22.469,10.309c-0.781,3.596-5.432,3.137-4.211,8.834
			c7.672-0.787,7.529-9.775,16.85-8.834c-1.8,5.392,5.691,12.278,7.023,19.142c-2.037,3.911-2.066-6.531-5.619-5.89
			c-2.774,6.876,7.119,13.121,7.021,22.087c-4.097,3.683-0.727,13.15,1.404,23.562c1.049,5.114,2.43,8.817,1.404,14.724
			c4.387,0.676,4.49-3.145,4.213-7.361c5.424,22.385-4.65,41.258-9.829,57.43c-1.524-0.365-0.952-2.93-2.81-2.945
			c-10.52,16.457-19.604,34.418-37.916,42.703c9.957-10.666,24.146-16.895,28.086-33.867c-8.533,3.826-14.406,23.17-28.086,26.504
			c4.099-6.992,13.838-8.068,15.447-17.67c-7.597,0.412-10.795,13.178-16.852,10.309c1.129-5.688,8.705-4.613,9.83-10.309
			c-4.967-0.791-7.234,1.248-8.426,4.416c-1.488-10.219-3.486-19.904-8.426-26.504c-5.208-1.043-6.025,2.516-11.234,1.475
			c-0.666,4.623,1.752,6.016,4.213,7.361c2.707-0.6,1.111-5.709,5.617-4.418c-1.262,2.604-3.39,4.299-4.211,7.363
			c8.791,12.029,11.603,29.031,5.615,45.646c-3.139-0.635-0.568-7.258-1.404-10.309c-6.879,2.309-15.291,19.088-2.808,20.615
			c-3.687,4.299,1.248,8.482,0,14.727c-2.519-0.188-2.962,1.803-5.616,1.471c-4.217,17.184,10.119,14.912,8.424,29.451
			c-3.276,0-6.553,0-9.83,0c1.627-2.18,1.627-3.711,0-5.891c-2.896-1.688-3.59,3.266-5.615,2.945
			c-1.122-0.178-1.432-3.518-2.809-2.945c-8.988,3.723-3.927,7.453-5.617,16.197c-0.799,4.131-2.223,0.992-4.213,2.945
			c0.602,2.803,3.025,3.699,2.809,7.361c7.314-1.656,4.751-13.67,9.831-17.668c1.85,4.594-4.214,11.139-5.618,19.141
			c-1.196,6.812,3.303,15.391-2.809,19.145c2.414-17.256-6.879-22.236-8.425-35.342c-1.477-3.852-5.706-4.814-11.234-4.418
			c-0.516,2.506,1.095,2.777,2.809,2.945c-19.394-2.939-23.833,25.875-25.277,32.396c7.343-27.609-22.447-47.373-28.085-19.146
			c-9.334-26.564,15.051-53.145,1.404-80.986c2.785-5.576-0.876,7.578,4.213,4.418c1.598-9.895,3.613-19.959,0-32.396
			c-1.25,0.652-2.512,1.293-2.809,2.947c-3.307-0.086,0.614-15.215-4.212-8.838c-5-7.586,4.028-19.816,1.404-25.033
			c-7.312,2.643-6.722,13.566-7.021,23.562c-7.453-8.566-7.489-23.484-5.618-38.283c-5.56,1.529-5.465,8.99-5.617,16.195
			c-3.091-3.631-3.12-10.473-5.617-14.725c-3.772,21.143,13.274,33.193,16.852,51.537c-1.873,0-3.745,0-5.618,0
			c0.601-5.021-2.024-7.773-8.425-8.834c0.347-1.602,2.792-1,2.809-2.945c-3.104-4.6-10.423-4.777-15.447-7.363
			c1.793,6.436-6.595,0.555-4.212,5.891c-12.553-1.207-25.357-35.309-18.256-55.955c9.598-3.68,14-12.808,22.469-17.67
			c3.643,8.762-12.096,9.869-12.639,19.143c6.562-0.48,6.075-8.354,12.639-8.834c-0.327,7.789-4.137,19.301,1.404,26.504
			c4.733-2.176,4.072-4.41,8.425-4.418c-0.287-4.605,0.947-10.809-1.404-13.252c-5.399,2.404,0.169,8.646-2.809,11.779
			c-6.637-29.816,8.266-43.076,19.66-60.373c-7.811,3.102-10.961,11.086-15.447,17.67c-0.46-15.218,17.799-23.541,25.277-35.339
			c-8.688-1.236-14.824,12.908-21.064,19.142c-4.12-1.252,1.827-3.707,0-7.362c12.355-12.569,26.474-23.288,40.725-33.869
			c-11.259,1.106-23.394,13.645-32.298,22.088c5.762-17.033,30.048-27.388,46.34-38.286c-9.108-1.676-19.424,8.084-26.681,13.252
			c3.856-11.672,26.124-16.774,35.107-27.977c4.512-1.295,1.924,4.854,5.617,4.417c3.125-5.066,7.833-8.475,12.638-11.78
			c-2.27-3.697-6.757,2.614-9.83,2.945c-2.214,0.559,9.488-8.298,14.043-10.308c-0.795-1.375-3.904-2.23-1.404-2.945
			c4.896-4.699,2.06,7.633,2.809,11.78c6.944-2.533,6.106-11.717,5.616-14.725c5.552-0.25-0.45,2.262,2.809,4.418
			c9.211,2.176,12.162-8.276,12.639-8.836c3.146-3.684,5.029-6.512,12.639-10.307c2.083,0.643-0.555,1.884,0,4.417
			c5.439-0.678,5.285-7.22,9.83-8.835c0.771-3.021-2.682-3.513-2.809-1.473c-4.334-1.475,3.045-2.428,2.809-4.417
			c3.363-0.584-0.779,6.707,4.211,4.417c3.047,0.248,0.637-5.223,1.404-7.363c9.688,4.513,11.162-9.156,12.64-13.252
			c1.646,0.237,1.185,2.685,1.403,4.417c8.732-2.625,11.884-11.1,16.852-17.67c-2.268-0.415-2.417,1.392-4.212,1.473
			c-3.466-1.059,4.459-4.618,5.616-1.473c5.398-7.138,13.145-16.191,14.043-23.56c9.723,4.655,11.055-9.204,16.852-13.253
			c-0.039-1.432-1.719-1.143-2.809-1.473c8.135-9.697,17.689-8.873,21.064-23.56c-1.639-3.943-3.672,3.834-5.619,4.417
			c-1.014-1.387,9.461-15.367,15.449-19.143c-2.84-7.729,6.867-11.495,14.043-13.252c0.768,5.084,4.84,6.703,11.234,5.889
			c-1.031,1.375-2.555,2.231-4.215,2.945c2.074,4.082,5.432,0.966,9.83,4.417c2.754-2.512,0.447-10.331,4.213-11.78
			c-1.633-0.239-2.5,0.325-2.809,1.473c-3.533-1.479,1.117-6.511,4.213-5.89c-2.459-5.215,0.936-3.621,1.404-8.834
			c14.348-5.572,20.564-19.666,39.318-20.616c0,1.963,0,3.927,0,5.89c1.873,0,3.744,0,5.617,0c0.479-2.956-0.287-4.608-2.809-4.417
			c5.242-2.399,11.166-0.303,18.256,1.473c-1.787,3.525-5.127,5.422-4.213,11.78c7.695-0.764,3.592-13.904,14.043-11.78
			c-12.621,7.635-10.354,40.257,8.426,33.868c8.621-2.964-1.109-16.032,5.617-20.616c6.623,18.579,19.572,30.523,29.488,45.647
			c2.34,0,4.682,0,7.021,0C608.661,69.983,612.989,81.31,618.446,84.132z M610.022,67.935c-10.885,0.834-2.414,16.104,2.807,17.67
			C616.657,79.7,604.641,75.789,610.022,67.935z M615.639,107.692c-5.928-0.267-9.428,9.674-7.021,13.253
			C611.241,116.825,614.872,113.76,615.639,107.692z M341.804,225.493c0.751,5.594,5.983,6.488,11.233,7.362
			c0-1.472,0-2.945,0-4.417C346.29,230.607,347.176,224.767,341.804,225.493z M397.975,316.788
			c-1.557,2.787-1.791,6.959-2.807,10.311C401.813,326.637,401.948,318.329,397.975,316.788z M348.827,360.965
			c4.256,0.045,1.358-7.41,5.615-7.365c0.264,4.143,2.443,6.273,7.021,5.893c0.367-2.072,3.08-1.682,4.213-2.945
			c-4.127-13.338-3.17-27.77-5.616-41.229c-2.38-13.094-10.636-26.656-2.81-41.232c-3.607-0.142-2.008-5.746-5.617-5.889
			c-2.366,11.733-3.049,20.809,0,32.395c-2.004-0.572-2.367-1.768-4.213,0c0.08,4.826,3.994,5.63,2.81,11.781
			c2.761,0.438,2.784-1.99,4.212-2.945c0.801,10.961,2.564,28.699,2.809,35.34c-4.973,1.191-3.76-12.619-9.83-14.725
			c-4.037,1.977,3.195,12.158,0,13.252c-1.407-0.004-1.67,1.191-2.809,1.473c-2.953-5.738-1.169-16.441-7.021-19.143
			c-3.352,2.375,1.139,12.973-4.213,13.252c-2.625-11.5,1.783-22.229,0-33.867c-2.144-14-9.931-25.648-9.83-39.758
			c0.043-5.623,5.33-8.852,0-14.726c-13.58,21.593,4.252,43.366,5.619,64.792c0.832,13.057-4.957,26.344,4.211,36.812
			c4.856,1.166,5.93-1.637,8.426-2.945C342.663,354.667,344.463,359.155,348.827,360.965z M278.612,486.127
			c-0.012-8.822-5.635-11.762-11.234-14.725C270.513,476.95,272.525,483.676,278.612,486.127z M546.829,70.88
			c12.457-2.09,8.996-9.404,7.021-17.67c-1.404,0-2.809,0-4.213,0C550.631,61.123,548.526,65.789,546.829,70.88z M503.295,67.935
			c-1.646,1.947,2.01,8.797-4.213,5.89c0,2.454,0,4.909,0,7.363c4.951-0.6,6.283,5.725,11.234,8.835
			c-1.439-7.654-1.439-12.959,0-20.615c1.396-4.332,13.273-8.659,7.021-11.78C513.403,64.37,506.838,63.751,503.295,67.935z
			 M584.743,107.692c-0.027-7.496-3.312-26.759,0-38.285c-1.404,0-2.809,0-4.211,0C579.87,80.309,575.03,103.321,584.743,107.692z
			 M482.233,84.132c-0.322-2.609,1.414-7.375-2.811-5.89C479.032,81.599,479.762,83.777,482.233,84.132z M483.637,92.967
			c0.205-3.653,0.262-7.146-2.809-7.363C478.684,87.716,479.459,93.28,483.637,92.967z M563.68,94.44
			c1.744,4.655,4.084,0.278,7.021,4.417c0.768-2.14-1.643-7.611,1.402-7.363c0.24,4.166-1.207,10.102,2.809,10.308
			c3.26-4.151-1.619-9.204,0-16.198c-5.312,3.073-2.086,4.849-7.021,0C567.415,89.522,564.389,90.765,563.68,94.44z
			 M511.721,110.637c-6.652,1.086-9.652-1.656-15.445-1.472C496.834,114.106,512.012,118.363,511.721,110.637z M602.999,116.528
			c3.553,1.549,6.227-4.966,2.809-5.891C605.79,113.563,601.977,112.51,602.999,116.528z M542.616,122.417
			c-1.812-2.029-6.1-1.458-9.83-1.473C532.875,125.17,543.063,126.321,542.616,122.417z M430.274,153.34
			c1.398-1.968,3.795-2.892,4.213-5.89C430.149,145.525,426.52,151.628,430.274,153.34z M390.954,173.956c0.938,0,1.873,0,2.81,0
			c0.075-1.883,1.8-2.039,1.405-4.418c-0.938,0-1.875,0-2.811,0C392.282,171.42,390.558,171.577,390.954,173.956z M302.485,209.296
			c4.782,0.105,5.23-4.332,7.021-7.363C303.971,201.038,303.286,205.227,302.485,209.296z M395.168,309.426
			c2.383-3.236,0.662-11.598-2.811-13.254C392.254,301.681,392.948,306.352,395.168,309.426z M244.91,306.48
			c2.407,2.661,5.522-0.451,5.617-4.416C246.854,301.648,244.486,302.602,244.91,306.48z M240.697,318.26
			c3.95-0.273,5.982-2.561,5.617-7.361c-1.404,0-2.809,0-4.212,0C242.675,314.448,239.536,314.098,240.697,318.26z M236.483,334.458
			c4.723-0.496,8.234-12.748,2.809-14.725C239.084,325.194,233.908,330.682,236.483,334.458z M258.952,331.514
			c-8.862,3.012-13.109,3.604-16.851,13.252c6.735,1.701,8.896,1.154,16.851,2.945c5.121-7.74,19.41-11.111,32.298-14.727
			c-0.823,3.064-2.951,4.76-4.213,7.363c4.092,4.99,8.465,4.531,15.447,5.891c10.969,2.133,15.849,12.539,25.276,16.195
			c-3.135-7.939-5.27-11.625-1.404-19.143c-3.686-0.734-7.914-4.779-4.213-8.834c-5.309-2.131-2.693,4.045-7.021,2.945
			c1.802-8.602-13.247-10.893-21.064-10.309c-11.095,0.828-20.19,11.912-26.682,4.418c-3.845,2.398-10.814,9.207-14.042,7.361
			C255.281,336.5,257.313,334.213,258.952,331.514z M274.399,366.854c6.179-2.848,14.571-3.373,19.66-7.361
			C287.097,356.137,274.993,358.76,274.399,366.854z M298.272,359.493c0.159,1.795,0.42,3.484,2.808,2.943
			c13.488-1.381,16.836,7.869,26.682,10.309C324.059,362.715,310.703,355.522,298.272,359.493z M280.016,387.469
			c2.033-10.631,10.936-14.059,15.447-22.09C284.999,365.723,274.081,379.549,280.016,387.469z M265.974,388.942
			c-0.33-7.133,8.232-19.281,2.808-22.088C265.482,370.745,260.212,384.977,265.974,388.942z M281.421,405.139
			c-4.473-6.801-9.014-13.83-8.426-23.561c0.348-5.748,8.96-9.988,2.809-13.252C265.558,375.081,267.117,408.758,281.421,405.139z
			 M285.633,387.469c2.416-0.08,3.599,1.133,4.212,2.943c-3.672-0.414-6.04,0.539-5.617,4.42c3.156,4.855,14.733,5.344,7.022,13.252
			c2.469,0.848,8.25-1.781,8.426,1.471c-0.261,2.184-3.394,1.352-5.617,1.475c0.706,6.232,12.688,4.451,18.255,2.943
			c6.269-1.695,13.597-7.66,14.043-11.779c-2.938-4.928-5.276,5.68-7.021,1.475c-0.355-7.738,9.791-10.65,5.617-17.672
			c-6.459,3.045-7.27,12.014-14.043,14.725c-4.915-7.188,0.817-16.49-4.213-23.559c-4.68,0-9.361,0-14.042,0
			C292.845,383.471,289.461,382.85,285.633,387.469z M285.633,440.481c-5.01,1.119-9.643-4.564-11.234,1.473
			c4.391,2.756,13.043,1.047,16.852,4.416c-2.469,0.848-8.25-1.779-8.426,1.473c5.577,6.904-13.039,0.996-11.234,8.836
			c14.057-0.998,24.199,2.111,36.511,2.945c3.896-2.203-2.437-6.023,1.405-7.363c3.09,0.893,10.465,3.699,11.234-1.473
			c-1.773-2.066-7.41-0.084-5.617-5.891c4.292,1.064,5.117-1.506,8.425-1.475c0.025-4.625-4.637-8.215-1.404-11.779
			c-14.247,1.469-31.244,2.805-43.532-1.471C276.611,438.161,287.927,432.184,285.633,440.481z"/>
		<path fill="#B2AA7E" d="M619.85,116.528C616.385,112.652,623.901,107.995,619.85,116.528L619.85,116.528z"/>
		<path fill="#B2AA7E" d="M617.042,118c1.781,0.553-1.785,7.829-5.615,7.363C612.375,121.942,616.09,121.421,617.042,118z"/>
		<path fill="#B2AA7E" d="M506.106,129.78c6.141-0.364,19.861,3.085,28.084-1.472C530.889,134.689,511.209,134.488,506.106,129.78z"
			/>
		<path fill="#B2AA7E" d="M388.145,132.725C391.096,130.515,378.098,140.251,388.145,132.725L388.145,132.725z"/>
		<path fill="#B2AA7E" d="M535.594,134.198c-1.189,2.188-4.521,2.131-7.021,2.945C525.36,135.998,532.95,134.049,535.594,134.198z"
			/>
		<path fill="#B2AA7E" d="M482.233,137.143c-0.389,3.032-5.232,1.386-5.619,4.417C473.711,140.739,478.508,135.862,482.233,137.143z
			"/>
		<path fill="#B2AA7E" d="M407.805,196.043c4.162,3.048-2.002,7.601-4.213,8.835C401.522,204.022,407.766,199.554,407.805,196.043z"
			/>
		<path fill="#B2AA7E" d="M413.422,246.108c-4.195-3.824-11.107,2.032-16.853,1.472c-0.601-4.066,5.237-1.382,5.618-4.417
			c0.236-3.194-4.98-0.667-7.021-1.473c-4.537-8.779,3.295-13.107,4.213-20.615c14.514,10.303,24.24,25.628,40.725,33.868
			c0.887,4.958,4.031,7.552,2.809,14.726c2.287,4.474,4.121,9.422,4.213,16.197c-6.383-5.576-7.766-16.398-12.639-23.56
			c0.496-1.934,2.473-2.316,2.809-4.417c-2.064-5.395-8.723,0.592-9.83-7.363c-4.291-1.063-5.119,1.506-8.428,1.473
			c0.498-1.934,2.475-2.316,2.811-4.417C412.268,248.074,400.887,252.521,413.422,246.108z"/>
		<path fill="#B2AA7E" d="M375.506,226.965C373.313,233.92,368.549,228.925,375.506,226.965L375.506,226.965z"/>
		<path fill="#B2AA7E" d="M219.632,293.228c-4.555,8.967-17.149,9.505-21.064,19.144
			C199.192,305.149,210.216,296.131,219.632,293.228z"/>
		<path fill="#B2AA7E" d="M162.058,302.064c0.334,0.021,2.11,1.011,0,1.474C157.663,304.499,148.233,301.198,162.058,302.064z"/>
		<path fill="#B2AA7E" d="M197.164,303.538c-0.018,2.926-3.831,1.871-2.808,5.889c-5.466-1.139-14.828-3.233-16.852,2.945
			c1.013,1.439,11.521,0.385,14.042-1.473c-1.218,8.199-10.533,29.107-2.809,42.701c-3.011,2.727-7.481-1.945-12.638-1.473
			c-0.255,3.213,1.149,4.688,4.212,4.418c-5.863,4.611-8.731-6.5-11.234-10.307c-2.938,4.139-5.278-0.238-7.021,4.416
			c0.038,1.434,1.718,1.145,2.808,1.473c-0.577,5.576-6.662-6.09-8.426-8.834c-5.398,1.295,0.25,5.914,0,10.307
			c-7.346,1.441-16.498,4.396-19.66-1.473c-8.67,4.535-18.949,0.447-25.277,8.838c2.689,4.133,7.321-2.023,11.234-1.475
			c3.986-5.762-2.598,4.119-5.618,4.418c-9.173-1.768-12.145,2.973-19.66,2.945c-3.422,3.771-7.192,7.184-14.042,7.361
			c-2.899,3.34-2.871,9.75-5.617,13.252c-5.306-7.633-12.535,1.574-19.66,4.418c0.36,3.445,6.169,0.85,7.021,0
			c-3.245,3.006-14.493,10.309-26.681,8.834c-4.184-6.41-11.7-9.326-15.447-16.195c-9.994,1.338-8.334-4.74-15.447-2.945
			c0.575-3.549-2.564-3.201-1.404-7.363c11.091,0.15,19.55,3.061,22.468,11.779c6.182-0.1,8.811,3.523,11.234,7.365
			c4.344-1.822,7.735-4.689,11.234,0c1.71-2.779-0.387-6.521,7.021-5.893c-1.949-7.934,5.349-6.172,4.212-13.252
			c-3.729,0.508-4.739,3.865-5.617,7.361c-5.765-1.977,2.325-12.936,7.021-8.834c-1.015,4.5,1.436,5.365,1.404,8.834
			c6.307,0.756,3.708-6.756,1.405-8.834c3.603-2.113,7.456-3.961,8.426-8.836c-6.846-1.777-4.716,5.854-9.831,5.891
			c-0.673-4.631,2-5.756,2.809-8.834c3.514-0.184,4.396-2.811,5.617,1.473c4.862-6.191,12.617-9.35,18.255-14.727
			c-0.156-5.215-4.642,3.129-4.213-1.471c2.866-5.832,6.067-11.311,12.639-13.254c-0.895,3.369-2.786,8.883,0,11.779
			c4.368-0.328,2.373-7.328,2.808-11.779c3.049-2.148,9.107-6.887,11.235-1.473c0.947-6.859,11.822-3.311,11.234-11.779
			c4.99,2.883,5.105-1.922,11.234-1.475c1.347,4.965-4.301,10.059,0,13.254c5.694,0.57,1.547-9.178,2.809-13.254
			c4.516-1.152,9.308-2.02,12.638-4.416c-6.344-2.686-18.673,1.004-23.873,4.416c0.362-7.982,21.179-7.227,29.489-11.78
			c-1.52,4.298-5.949,5.544-5.617,11.78c3.916-0.924,15.146-12.311,16.851-1.473C176.872,311.235,184.341,299.084,197.164,303.538z
			 M107.291,360.965c-2.099-2.338-8.006-2.154-7.021,2.943C103.752,364.125,107.083,364.182,107.291,360.965z M77.801,360.965
			c2.806,2.506,7.132-2.314,8.426-5.893C82.06,355.614,79.298,357.625,77.801,360.965z M115.716,334.458
			c3.672,0.414,6.04-0.537,5.617-4.416C118.647,330.661,115.289,330.575,115.716,334.458z M104.482,338.875
			c4.175-0.172,11.669-5.312,5.617-7.361C108.688,334.454,103.889,333.838,104.482,338.875z M152.228,349.184
			c-1.63-1.236-3.766-1.941-7.021-1.473C142.732,354.299,152.637,353.006,152.228,349.184z M86.227,369.799
			c3.969,1.215,3.638-2.076,7.021-1.473c0-0.982,0-1.965,0-2.947c-1.408,0.006-1.671-1.189-2.808-1.471
			C89.868,366.747,84.995,365.073,86.227,369.799z"/>
		<path fill="#B2AA7E" d="M409.209,303.538c2.812,1.959,3.129,6.535,4.213,10.307C410.612,311.883,410.293,307.307,409.209,303.538z
			"/>
		<path fill="#B2AA7E" d="M114.312,321.208c-0.138,7.209-11.76,5.197-12.639,7.361C99.382,325.108,110.391,323.042,114.312,321.208z
			"/>
		<path fill="#B2AA7E" d="M292.655,334.458c-2.166-4.445,7.267-3.875,7.021-1.473C303.345,334.934,295.095,331.907,292.655,334.458z
			"/>
		<path fill="#B2AA7E" d="M90.439,334.458c2.567,0.918-2.426,6.152-5.617,5.891C86.405,338.083,88.856,336.725,90.439,334.458z"/>
		<path fill="#B2AA7E" d="M407.805,366.854c-4.742,0.598,3.736,5.709-2.807,4.418c0.197,3.422,5.754,15.691,5.615,5.891
			c4.062,3.883-3.143,8.4-1.404,14.725c-3.363-0.891-6.406-2.115-11.234-1.473c-7.512,4.395-6.615,17.607-9.83,26.506
			c-2.339,0-4.682,0-7.02,0c0-4.418,0-8.836,0-13.252c-2.969,0.912-5.449,9.861-2.811,11.779c-2.886,4.342-3.258-6.285-2.809-10.309
			c12.086-13.34,19.75-31.316,26.682-50.064c3.125,0.619,1.1,7.812,0,8.834c1.865,1.912,5.225,1.941,5.615-1.473
			c4.242,0.951,3.92,6.688,7.021,8.836C412.225,375.774,412.723,364.782,407.805,366.854z M382.528,415.448
			c4.314,2.252,4.314-9.615,0-7.363C382.528,410.54,382.528,412.993,382.528,415.448z"/>
		<path fill="#B2AA7E" d="M67.971,358.018C69.753,359.083,53.678,366.624,67.971,358.018L67.971,358.018z"/>
		<path fill="#B2AA7E" d="M143.802,359.493c2.469,0.635,13.638-3.248,16.852-1.475C159.638,363.038,146.93,361.331,143.802,359.493z
			"/>
		<path fill="#B2AA7E" d="M194.356,366.854c-6.462-0.096-11.181-2.02-15.447-4.418c-4.154-2.422,5.454-0.629,5.617,1.473
			C187.716,364.981,195.481,361.256,194.356,366.854z"/>
		<path fill="#B2AA7E" d="M93.248,375.688c4.076-2.266-4.332,3.014-5.617,4.42C83.103,377.584,91.148,376.112,93.248,375.688z"/>
		<path fill="#E6E5D3" d="M419.038,383.051c-2.133,4.143-6.65,5.787-5.615,13.252C410.444,397.756,412.598,381.311,419.038,383.051z
			"/>
		<path fill="#B2AA7E" d="M232.271,390.415C228.576,394.047,224.134,386.167,232.271,390.415L232.271,390.415z"/>
		<path fill="#B2AA7E" d="M247.718,393.36c1.913-2.855,1.659,8.959,2.808,11.779C249.008,407.581,247.382,397.737,247.718,393.36z"
			/>
		<path fill="#E6E5D3" d="M399.379,394.833c3.582,0.17,7.227,0.277,7.021,4.416c-1.133-1.266-3.848-0.875-4.213-2.943
			c-2.408,1.895-5.521,3.045-5.618,7.363C392.764,401.45,398.805,397.315,399.379,394.833z"/>
		<path d="M292.655,377.163c4.681,0,9.362,0,14.042,0c5.03,7.068-0.702,16.369,4.213,23.559c6.774-2.711,7.584-11.68,14.043-14.725
			c4.174,7.02-5.973,9.934-5.617,17.672c1.744,4.205,4.082-6.4,7.021-1.475c-0.446,4.117-7.774,10.084-14.043,11.779
			c-5.567,1.508-17.549,3.289-18.255-2.943c2.223-0.123,5.356,0.709,5.617-1.475c-0.175-3.252-5.957-0.623-8.426-1.471
			c7.711-7.908-3.866-8.396-7.022-13.252c-0.423-3.881,1.945-4.834,5.617-4.42c-0.613-1.812-1.796-3.023-4.212-2.943
			C289.461,382.85,292.845,383.471,292.655,377.163z M303.889,381.579c-2.041,0.807-7.258-1.721-7.021,1.475
			C298.908,382.247,304.125,384.772,303.889,381.579z M301.08,387.469c-2.909,0.875-9.225-1.818-9.83,1.473
			C294.159,388.065,300.475,390.762,301.08,387.469z M299.676,393.36C290.682,391.661,296.593,397.858,299.676,393.36
			L299.676,393.36z M308.102,402.194c0.968-3.959-2.903-2.846-4.212-4.416C303.634,400.991,305.039,402.461,308.102,402.194z
			 M316.528,405.139C310.851,399.959,313.215,409.875,316.528,405.139L316.528,405.139z"/>
		<path fill="#E6E5D3" d="M347.42,469.93c-3.312-2.922,0.129-2.922,1.406,0c-0.457,3.545,1.196,16.83-1.406,13.252
			C347.801,475.438,344.868,475.397,347.42,469.93z"/>
		<path fill="#E6E5D3" d="M341.804,481.709c-1.63-1.236-3.765-1.941-7.021-1.473c-2.467,1.244-5.423,6.43-7.021,13.252
			c-1.635,6.973-0.988,26.078-1.405,8.836c-0.06-2.453,0.045-4.91,0-7.363c1.185-6.611,3.876-11.643,7.021-16.197
			C335.518,476.5,343.008,476.141,341.804,481.709z"/>
		<path fill="#E6E5D3" d="M270.187,486.127c-0.951,3.221-4.667-2.789-5.617-4.418C251.678,479.983,270.855,479.692,270.187,486.127z
			"/>
		<path fill="#E6E5D3" d="M305.294,483.182c6.648,7.264,10.484,17.477,9.829,32.395c-2.34,0-4.681,0-7.021,0
			c7.528-22.006-13.692-42.766-22.468-19.143C283.565,488.836,293.93,481.598,305.294,483.182z"/>
		<path fill="#B2AA7E" d="M337.59,486.127C337.325,479.862,338.198,500.338,337.59,486.127L337.59,486.127z"/>
		<path fill="#E6E5D3" d="M298.272,514.106c6.301-0.756-0.092-14.822,4.213-17.672c0,6.873,0,13.744,0,20.615
			c-5.559,1.447-10.198,2.039-14.042-1.473c-0.206-11.504-0.879-23.5,8.425-25.033c2.075,9.539-4.417,10.096-2.809,19.145
			C301.045,507.106,294.979,510.165,298.272,514.106z"/>
		<path fill="#E6E5D3" d="M271.591,499.379c3.781,1.74-0.006,7.678,0,10.309C268.114,508.268,273.525,504.034,271.591,499.379z"/>
		<path fill="#E6E5D3" d="M282.825,502.325c2.514-0.818,0.094,7.4,1.404,13.252C279.634,513.059,282.333,507.28,282.825,502.325z"/>
		<path d="M403.592,215.185c10.248,16.25,26.412,26.297,40.725,38.286c0.48,11.826,13.316,29.035,2.809,38.285
			c-14.943-1.021-9.412-23.508-18.256-30.923c-7.672-2.263-18.416-1.303-28.086-1.473c4.635,11.934,2.123,19.057,5.619,27.979
			c2.629,6.715,9.805,8.809,12.637,16.197c2.066,5.383,0.969,14.908,0,20.615c-0.953,5.629-5.674,11.402-5.615,17.67
			c0.08,8.883,8.662,15.416,11.232,25.031c2.801,10.471,2.305,24.928,1.406,38.285c-1.037,5.473-7.445,6.416-11.236,8.836
			c-8.217,5.244-7.939,5.457-21.062,5.891c-4.613,0.15-9.059,2.996-12.639,2.943c-8.103-0.113-15.236-5.195-21.063-4.416
			c-13.769,1.84-22.287,24.764-7.022,35.34c-0.176,9.596,7.166,13.652,7.022,20.615c-0.257,12.48-15.315,20.807-15.448,35.342
			c-8.463,2.42-15.336,6.35-26.681,8.834c-6.834,1.494-20.572,6.234-33.703,2.945c-4.136-1.037-9.243-4.066-14.042-5.893
			c-15.613-5.934-21.074-10.51-28.085-25.033c-3.025-31.891,15.61-50.014,4.212-78.041c-13.732-12.596-35.156-17.127-44.937-33.867
			c-8.58-0.82-16.047-2.807-21.064-7.361c-7.769,5.697-20.519,7.395-29.489,1.473c-9.077,3.846-19.107,1.488-29.49,4.416
			c-7.613,2.146-14.705,9.695-23.873,7.363c-13.556,6.08-32.308,23.086-51.958,22.088c-8.568-0.438-20.37-7.502-28.086-11.779
			c-8.624-4.783-20.107-10.793-16.853-23.561c15.287-7.98,24.302,9.441,37.916,4.416c6.336-2.338,10.532-12.174,15.447-17.67
			c5.401-6.037,11.932-10.92,15.447-17.67c3.309,0.033,4.135-2.535,8.426-1.473c16.433-19.09,40.831-29.83,64.596-41.229
			c14.507-4.144,29.647-1.718,43.533-4.418c9.423-1.831,16.852-11.146,26.681-8.835c15.319-17.041,18.558-35.841,32.299-51.538
			c10.875-12.422,29.759-24.891,46.341-36.812c8.232-5.919,14.275-11.38,23.873-17.67c3.585-2.351,6.609-5.477,9.83-7.363
			c6.104-3.574,12.682-4.732,18.256-8.835c10.354-7.622,17.264-19.361,29.49-23.561c7.787-10.976,16.872-20.592,28.084-27.978
			c8.785-13.858,18.494-26.747,30.895-36.812c9.527-21.423,21.906-39.857,49.15-42.703c13.025-7.713,30.58-26.562,49.148-30.922
			c2.443-0.574,15.016,0.147,21.064,1.472c1.064,0.233,3.801,2.911,4.213,2.945c3.617,0.304,7.064-2.344,9.83-1.473
			c10.215,3.218,14.607,13.311,23.871,19.143c3.555,23.762,17.736,36.376,36.514,44.175c2.961,10.114,6.99,19.223,7.021,29.451
			c0.061,21.209-13.676,33.813-25.277,44.176c-15.518-0.242-47.703,0.719-66.002,2.945c-18.184,2.212-34.865-6.232-46.34-4.418
			c-6.93,1.097-11.139,9.987-18.256,7.363c-13.273,13.077-31.379,21.089-42.129,36.812c-3.516,1.223-5.516,4.034-9.83,4.417
			C420.946,200.004,411.602,206.896,403.592,215.185z M615.639,66.461c-2.342,0-4.684,0-7.021,0
			c-9.916-15.124-22.867-27.068-29.49-45.647c-6.727,4.583,3.004,17.651-5.617,20.616c-18.779,6.39-21.047-26.232-8.426-33.868
			c-10.451-2.125-6.346,11.016-14.043,11.78c-0.912-6.358,2.426-8.254,4.213-11.78C548.167,5.786,542.243,3.69,537,6.089
			c2.52-0.19,3.285,1.462,2.807,4.417c-1.873,0-3.744,0-5.615,0c0-1.963,0-3.927,0-5.89c-18.756,0.95-24.973,15.043-39.32,20.616
			c-0.469,5.214-3.861,3.62-1.404,8.834c-3.094-0.622-7.746,4.41-4.213,5.89c0.311-1.147,1.176-1.711,2.811-1.473
			c-3.768,1.45-1.461,9.269-4.215,11.78c-4.396-3.451-7.754-0.336-9.828-4.417c1.658-0.714,3.184-1.57,4.213-2.945
			c-6.395,0.813-10.467-0.805-11.234-5.889c-7.176,1.757-16.883,5.523-14.043,13.252c-5.988,3.775-16.463,17.756-15.447,19.143
			c1.947-0.583,3.979-8.36,5.617-4.417c-3.375,14.687-12.93,13.862-21.062,23.56c1.088,0.33,2.77,0.041,2.807,1.473
			c-5.795,4.049-7.127,17.908-16.852,13.253c-0.896,7.369-8.643,16.422-14.043,23.56c-1.156-3.145-9.081,0.414-5.615,1.473
			c1.795-0.081,1.944-1.888,4.212-1.473c-4.968,6.57-8.118,15.046-16.851,17.67c-0.221-1.733,0.24-4.18-1.404-4.417
			c-1.479,4.096-2.951,17.765-12.639,13.252c-0.77,2.14,1.642,7.611-1.405,7.363c-4.989,2.29-0.847-5.001-4.211-4.417
			c0.237,1.99-7.142,2.943-2.81,4.417c0.127-2.04,3.582-1.548,2.81,1.473c-4.545,1.615-4.392,8.157-9.83,8.835
			c-0.554-2.533,2.083-3.775,0-4.417c-7.61,3.795-9.493,6.624-12.64,10.307c-0.477,0.56-3.426,11.012-12.637,8.836
			c-3.26-2.156,2.742-4.668-2.81-4.418c0.491,3.008,1.328,12.192-5.616,14.725c-0.75-4.147,2.086-16.479-2.809-11.78
			c-2.5,0.714,0.609,1.57,1.404,2.945c-4.555,2.01-16.257,10.867-14.043,10.308c3.073-0.331,7.56-6.643,9.83-2.945
			c-4.806,3.305-9.513,6.713-12.638,11.78c-3.693,0.437-1.105-5.712-5.617-4.417c-8.983,11.203-31.251,16.305-35.107,27.977
			c7.257-5.168,17.573-14.928,26.681-13.252c-16.292,10.897-40.579,21.253-46.34,38.286c8.905-8.443,21.04-20.982,32.298-22.088
			c-14.25,10.581-28.37,21.3-40.725,33.869c1.827,3.655-4.12,6.11,0,7.362c6.241-6.234,12.376-20.378,21.064-19.142
			c-7.478,11.798-25.737,20.122-25.277,35.339c4.486-6.584,7.637-14.57,15.447-17.67c-11.395,17.295-26.297,30.555-19.66,60.373
			c2.978-3.135-2.591-9.375,2.809-11.779c2.351,2.443,1.118,8.646,1.404,13.252c-4.354,0.008-3.692,2.242-8.425,4.418
			c-5.542-7.203-1.731-18.715-1.404-26.504c-6.563,0.48-6.076,8.354-12.639,8.834c0.543-9.271,16.281-10.381,12.639-19.143
			c-8.469,4.862-12.871,13.99-22.469,17.67c-7.101,20.646,5.703,54.748,18.256,55.955c-2.383-5.336,6.006,0.545,4.212-5.891
			c5.024,2.586,12.342,2.766,15.447,7.363c-0.017,1.945-2.461,1.346-2.809,2.945c6.401,1.061,9.026,3.811,8.425,8.834
			c1.873,0,3.745,0,5.618,0c-3.577-18.344-20.624-30.395-16.852-51.537c2.498,4.252,2.526,11.094,5.617,14.725
			c0.152-7.205,0.057-14.666,5.617-16.195c-1.871,14.799-1.835,29.717,5.618,38.283c0.299-9.994-0.29-20.92,7.021-23.562
			c2.624,5.217-6.405,17.447-1.404,25.033c4.826-6.377,0.905,8.752,4.212,8.838c0.297-1.654,1.559-2.295,2.809-2.947
			c3.613,12.438,1.598,22.502,0,32.396c-5.089,3.16-1.429-9.994-4.213-4.418c13.647,27.842-10.738,54.422-1.404,80.986
			c5.638-28.229,35.428-8.463,28.085,19.146c1.444-6.521,5.883-35.338,25.277-32.396c-1.713-0.168-3.325-0.439-2.809-2.945
			c5.528-0.396,9.757,0.566,11.234,4.418c1.546,13.104,10.838,18.086,8.426,35.342c6.111-3.754,1.611-12.33,2.808-19.145
			c1.403-8.002,7.468-14.547,5.618-19.141c-5.079,3.998-2.518,16.012-9.831,17.668c0.216-3.662-2.207-4.559-2.809-7.361
			c1.992-1.953,3.414,1.186,4.212-2.945c1.691-8.744-3.37-12.475,5.617-16.197c1.379-0.572,1.688,2.768,2.81,2.945
			c2.026,0.32,2.721-4.633,5.616-2.945c1.625,2.18,1.625,3.711,0,5.891c3.277,0,6.553,0,9.83,0
			c1.694-14.539-12.643-12.268-8.426-29.451c2.655,0.332,3.098-1.656,5.617-1.471c1.248-6.242-3.688-10.428,0-14.727
			c-12.482-1.527-4.072-18.307,2.809-20.615c0.834,3.051-1.735,9.674,1.404,10.309c5.986-16.615,3.174-33.617-5.617-45.646
			c0.823-3.064,2.951-4.76,4.213-7.363c-4.508-1.291-2.912,3.818-5.617,4.418c-2.461-1.348-4.879-2.738-4.213-7.361
			c5.207,1.041,6.025-2.518,11.234-1.475c4.939,6.6,6.938,16.285,8.424,26.504c1.192-3.168,3.459-5.207,8.428-4.416
			c-1.125,5.693-8.702,4.619-9.83,10.309c6.055,2.869,9.254-9.896,16.851-10.309c-1.608,9.602-11.349,10.678-15.448,17.67
			c13.681-3.334,19.555-22.678,28.088-26.504c-3.941,16.973-18.131,23.201-28.088,33.867c18.313-8.285,27.397-26.246,37.918-42.703
			c1.855,0.016,1.283,2.58,2.809,2.945c5.18-16.172,15.252-35.045,9.83-57.43c0.275,4.219,0.174,8.037-4.213,7.361
			c1.023-5.906-0.355-9.609-1.406-14.724c-2.129-10.411-5.5-19.879-1.402-23.562c0.098-8.967-9.797-15.211-7.021-22.087
			c3.552-0.641,3.58,9.801,5.617,5.89c-1.332-6.864-8.822-13.75-7.022-19.142c-9.319-0.94-9.177,8.047-16.851,8.834
			c-1.221-5.697,3.431-5.238,4.213-8.834c-10.328-0.459-19.942-1.668-22.469-10.309c2.102-0.25,5.184,0.526,5.617-1.472
			c-12.516-7.001-22.475-16.681-33.703-25.033c10.604-0.812,12.692,7.307,21.064,8.835c2.531-9.035-7.662-4.728-7.021-11.779
			c6.641-4.021,18.828,18.698,23.873,2.944c-6.06-4.108-5.176-0.584-11.233,1.473c4.959-7.062-0.607-5.617-1.404-13.253
			c3.493-0.227,4.347,2.313,7.021,2.945c0.388-5.805-6.002-4.503-5.616-10.308c5.301-0.651,6.592,2.904,9.829,4.418
			c4.416-2.7-4.723-4.986,0-7.363c6.531,1.004,9.513,5.733,15.447,7.363c0.614-3.421,6.199-3.942,2.809-7.363
			c-5.246-1.575-4.002,3.657-8.426,2.945c3.158-4.393-2.037-9.012,2.81-10.308c2.79,0.02,1.785,4.018,5.616,2.945
			c4.533-3.66-7.038-8.31,0-10.308c5.732,2.333,8.605,7.664,14.043,10.308c4.137-3.372,8.029-10.299,15.445-5.89
			c3.26-3.395-2.598-4.749-1.404-10.308c7.926,4.625,10.344-4.632,16.854-5.891c1.047,4.533-3.855,2.831-2.811,7.363
			c6.316-3.194,11.119-7.975,15.449-13.252c-6.27-5.478,7.287-7.898,1.402-13.253c1.898-0.463,2.684-2.096,5.617-1.472
			c0.271-5.685-6.521-3.959-5.617-10.308c4.275-0.065,5.461,3.109,8.426,4.417c3.865-4.846,6.104-6.639,14.043-4.417
			c-3.646-7.95-19.408-17.262-14.043-25.033c4.307,3.339,6.115,9.296,9.83,13.252c8.279-1.91,12.318-6.523,18.256,0
			c1.9-5.939-5.643-13.346-7.021-20.615c1.408,0.004,1.67-1.193,2.809-1.473c4.076,2.106,3.482,9.11,7.021,11.78
			c2.469-0.847,8.25,1.78,8.426-1.473c-1.316-1.243-4.713-7.592-1.404-8.835c5.492,6.511,8.16,15.985,12.639,23.56
			c7.379,2.572,20.848-1.244,25.277,4.418c-8.578,1.105-21.246-1.234-23.873-1.473c10.605,11.167,32.949,2.351,49.148,5.89
			c-0.863,7.776,6.213,1.942,14.043,2.945c3.107,2.12-1.77,3.593,1.404,4.418c6.389-2.56,18.684,3.783,26.682,1.472
			c-3.885,0.25-4.822-2.261-2.809-4.417c2.535,0.094,10.91,5.407,8.426,1.473c-3.803-1.903-8.678-2.682-9.83-7.363
			c1.568-4.035,9.809,5.813,7.021,1.473c-21.523-14.247-62.127-16.331-67.406-42.703c5.191,0.447,5.268,6.258,8.426,8.835
			c12.416,10.767,29.645,11.369,44.938,17.67c9.867,4.065,17.1,14.476,28.086,14.725c8.281-2.374,10.527-31.851,16.854-22.087
			c-2.521-8.53,4.777-6.769,4.211-13.253c-1.711-2.869-12.344,6.888-12.639-2.945c2.043-2.165,9.191-2.165,11.232,0
			c0.916-4.511-2.426-12.025-4.211-8.835c3.533,1.48-1.117,6.512-4.213,5.89C612.989,81.31,608.661,69.983,615.639,66.461z
			 M562.274,22.287c1.859-3.941,8.855-2.495,11.234-5.89C569.631,9.192,557.977,17.145,562.274,22.287z M478.02,109.165
			c0.445,3.558,10.551,4.51,12.639,1.472c-3.693,0.437-1.105-5.713-5.617-4.417C485.672,110.319,477.387,105.065,478.02,109.165z
			 M619.85,116.528C623.901,107.995,616.385,112.652,619.85,116.528L619.85,116.528z M461.168,119.472
			c1.629,1.236,3.766,1.942,7.021,1.473c-0.592-2.815-0.512-6.338-4.215-5.89C463.639,117.156,461.663,117.539,461.168,119.472z
			 M494.87,119.472c-2.898-6.076-6.254-2.522-12.637-4.417C481.038,121.29,491.516,122.892,494.87,119.472z M611.426,125.362
			c3.83,0.466,7.396-6.81,5.615-7.363C616.09,121.421,612.375,121.942,611.426,125.362z M468.19,125.362
			c2.486-0.336,7.029,1.484,5.613-2.945C470.606,122.005,468.528,122.772,468.19,125.362z M500.487,126.835
			c-1.543-2.883-11.145-4.89-14.043-1.473C488.838,127.353,497.198,130.661,500.487,126.835z M475.209,129.78
			c1.404,0,2.811,0,4.213,0c0.184-2.644-1.393-3.446-4.213-2.945C475.209,127.816,475.209,128.798,475.209,129.78z M461.168,131.252
			c3.381-0.602,3.053,2.69,7.021,1.473C470.665,126.136,460.758,127.429,461.168,131.252z M534.19,128.308
			c-8.223,4.557-21.943,1.108-28.084,1.472C511.209,134.488,530.889,134.689,534.19,128.308z M449.934,135.669
			c3.58-0.17,7.225-0.276,7.021-4.417C452.893,129.426,450.553,130.501,449.934,135.669z M388.145,132.725
			C378.098,140.251,391.096,130.515,388.145,132.725L388.145,132.725z M468.19,137.143c4.033,0.305,7.133-0.374,8.424-2.945
			C473.971,131.401,469.317,134.019,468.19,137.143z M528.573,137.143c2.5-0.814,5.832-0.757,7.021-2.945
			C532.95,134.049,525.36,135.998,528.573,137.143z M455.549,140.088c3.584-0.171,7.227-0.278,7.021-4.418
			C459.295,136.162,456.522,137.179,455.549,140.088z M476.614,141.56c0.387-3.031,5.23-1.385,5.619-4.417
			C478.508,135.862,473.711,140.739,476.614,141.56z M449.934,138.615c-1.24-1.131-4.01,0.905-4.213,1.473
			C443.735,145.639,452.709,141.144,449.934,138.615z M462.571,143.033c2.615-0.203,4.693-0.969,5.619-2.945
			C465.713,137.36,463.842,140.467,462.571,143.033z M451.336,145.978c3.201,0.411,5.279-0.355,5.619-2.945
			C453.754,142.621,451.676,143.387,451.336,145.978z M440.104,150.396c2.109,2.349,5.912-0.042,7.021-2.945
			c-2.004-0.353-2.369-2.425-4.213-2.945C442.893,147.431,439.081,146.377,440.104,150.396z M448.53,154.813
			c0.336-2.102,2.312-2.484,2.807-4.417C448.446,149.104,445.032,154.213,448.53,154.813z M434.487,160.703
			c1.408-0.005,1.67,1.192,2.809,1.473c0.414-3.003,3.799-2.888,4.211-5.89c-1.408,0.004-1.67-1.193-2.807-1.472
			C438.286,157.815,434.899,157.7,434.487,160.703z M441.506,163.648c2.895,1.291,6.309-3.819,2.811-4.418
			C443.981,161.332,442.004,161.714,441.506,163.648z M426.063,168.065c2.654-0.33,3.098,1.659,5.615,1.472
			c0.336-2.101,2.312-2.482,2.809-4.417C431.491,161.955,426.838,164.574,426.063,168.065z M416.231,169.537
			c1.795,0.081,1.943,1.888,4.213,1.473c0.074-2.533-1.082-3.775-2.809-4.417C417.641,168.07,416.497,168.345,416.231,169.537z
			 M410.614,178.373c3.672,0.415,6.039-0.538,5.617-4.417C412.715,173.705,411.836,176.217,410.614,178.373z M397.975,182.79
			c4.115-0.104,7.918-0.533,7.023-5.89C401.577,177.731,397.774,178.161,397.975,182.79z M417.635,181.318
			c2.416,0.079,3.6-1.134,4.213-2.945C419.432,178.294,418.247,179.506,417.635,181.318z M381.125,182.79
			c2.653-0.33,3.098,1.66,5.615,1.473c0-1.473,0-2.945,0-4.417C383.54,179.434,381.461,180.2,381.125,182.79z M406.401,184.263
			c2.416,0.08,3.6-1.134,4.213-2.945C408.198,181.238,407.014,182.451,406.401,184.263z M389.549,187.208
			c3.201,0.412,5.279-0.354,5.619-2.945C391.592,183.503,389.721,181.753,389.549,187.208z M396.57,190.153
			c3.202,0.411,5.278-0.354,5.618-2.945C399.7,187.543,395.157,185.724,396.57,190.153z M379.72,194.57
			c3.866,3.88,7.725-0.553,8.425-4.417c-1.896-0.463-2.682-2.096-5.616-1.472C383.551,192.698,379.738,191.644,379.72,194.57z
			 M403.592,191.625c2.488-0.335,7.033,1.483,5.617-2.945C406.008,188.269,403.93,189.035,403.592,191.625z M371.295,196.043
			c0.201-4.141-3.44-4.247-7.023-4.417C363.629,196.226,367.272,196.333,371.295,196.043z M390.954,200.46
			c0.435-3.473,4.877-2.74,4.215-7.363c-1.936,0.064-3.086-0.693-4.215-1.472C391.311,195.994,385.4,198.89,390.954,200.46z
			 M395.168,203.406c5.961,0.854,6.512-3.969,8.424-7.363C399.237,192.214,395.686,198.655,395.168,203.406z M372.7,198.987
			c2.92,0.833,4.537,4.208,7.021,1.473C380.262,195.897,372.958,194.464,372.7,198.987z M403.592,204.878
			c2.211-1.234,8.375-5.787,4.213-8.835C407.766,199.554,401.522,204.022,403.592,204.878z M367.081,200.46
			c-4.322,1.097-2.697-4.042-7.021-2.945C360.476,201.21,366.286,205.661,367.081,200.46z M381.125,203.406
			C388.249,207.42,386.351,198.265,381.125,203.406L381.125,203.406z M368.485,206.35c3.385-0.603,3.055,2.689,7.021,1.473
			C376.858,202.41,368.607,201.97,368.485,206.35z M361.465,215.185c1.795,2.014,6.63,2.014,8.425,0
			C370.788,205.417,362.512,210.894,361.465,215.185z M383.933,213.713c2.416,0.079,3.599-1.134,4.212-2.945
			C385.938,210.908,383.276,210.571,383.933,213.713z M390.954,215.185c2.416,0.08,3.602-1.133,4.215-2.944
			C392.961,212.381,390.299,212.043,390.954,215.185z M354.442,221.076c0.277-4.216,0.176-8.036-4.212-7.363
			C347.499,216.553,348.762,222.726,354.442,221.076z M369.89,219.604c3.21,3.191,8.762,0.534,8.426-4.418
			C374.697,211.566,371.566,216.761,369.89,219.604z M379.72,222.547c5.182,1.439,7.204-5.531,2.809-5.89
			C381.797,218.837,380.452,220.369,379.72,222.547z M355.847,224.021c1.845,1.89,5.177,1.89,7.022,0
			c0.236-3.685-2.158-4.609-4.214-5.89C357.924,220.309,356.579,221.842,355.847,224.021z M421.848,247.581
			c-0.336,2.101-2.312,2.484-2.811,4.417c3.309,0.033,4.137-2.536,8.428-1.473c1.107,7.955,7.766,1.968,9.83,7.363
			c-0.336,2.102-2.312,2.484-2.809,4.417c4.873,7.16,6.256,17.982,12.639,23.56c-0.092-6.774-1.926-11.724-4.213-16.198
			c1.225-7.174-1.922-9.767-2.809-14.725c-16.482-8.24-26.211-23.564-40.725-33.868c-0.918,7.508-8.75,11.836-4.213,20.615
			c2.039,0.805,7.258-1.721,7.021,1.473c-0.381,3.035-6.219,0.351-5.618,4.417c5.743,0.56,12.655-5.296,16.853-1.472
			C400.887,252.521,412.268,248.074,421.848,247.581z M364.271,229.91c3.575-0.18,5.446-2.143,5.618-5.89
			C365.493,223.337,363.62,225.301,364.271,229.91z M375.506,226.965C368.549,228.925,373.313,233.92,375.506,226.965
			L375.506,226.965z M376.911,231.383c2.894,1.291,6.307-3.819,2.81-4.418C379.383,229.067,377.407,229.449,376.911,231.383z
			 M385.336,231.383c2.416,0.079,3.601-1.134,4.213-2.945C387.342,228.578,384.681,228.241,385.336,231.383z M365.676,237.273
			c0.256-3.212-1.148-4.685-4.211-4.418C361.209,236.068,362.614,237.54,365.676,237.273z M392.358,246.108
			c0.075-2.533-1.08-3.775-2.809-4.417C389.475,244.224,390.631,245.465,392.358,246.108z M198.568,312.372
			c3.915-9.639,16.509-10.177,21.064-19.144C210.216,296.131,199.192,305.149,198.568,312.372z M185.93,300.59
			c4.925-0.725,9.141-2.195,15.447-1.473C199.611,292.295,187.503,297.649,185.93,300.59z M181.717,299.12
			C171.21,297.355,177.189,303.625,181.717,299.12L181.717,299.12z M162.058,303.538c2.11-0.463,0.334-1.453,0-1.474
			C148.233,301.198,157.663,304.499,162.058,303.538z M169.079,316.788c-1.705-10.838-12.935,0.551-16.851,1.475
			c-0.333-6.236,4.097-7.484,5.617-11.781c-8.31,4.555-29.127,3.799-29.489,11.781c5.2-3.412,17.528-7.104,23.873-4.418
			c-3.331,2.398-8.122,3.264-12.638,4.418c-1.262,4.074,2.885,13.822-2.809,13.252c-4.301-3.193,1.347-8.287,0-13.252
			c-6.129-0.449-6.244,4.355-11.234,1.473c0.588,8.471-10.287,4.922-11.234,11.779c-2.127-5.414-8.186-0.676-11.235,1.473
			c-0.435,4.451,1.56,11.453-2.808,11.779c-2.786-2.896-0.895-8.408,0-11.779c-6.572,1.943-9.773,7.424-12.639,13.254
			c-0.429,4.602,4.057-3.744,4.213,1.473c-5.638,5.375-13.393,8.533-18.255,14.725c-1.222-4.283-2.103-1.654-5.617-1.471
			c-0.809,3.076-3.482,4.201-2.809,8.834c5.114-0.037,2.985-7.668,9.831-5.891c-0.97,4.873-4.823,6.723-8.426,8.836
			c2.304,2.076,4.902,9.59-1.405,8.834c0.032-3.469-2.418-4.336-1.404-8.834c-4.697-4.104-12.787,6.855-7.021,8.834
			c0.877-3.498,1.888-6.855,5.617-7.363c1.137,7.082-6.162,5.32-4.212,13.254c-7.408-0.629-5.312,3.111-7.021,5.891
			c-3.499-4.688-6.89-1.822-11.234,0c-2.423-3.842-5.052-7.463-11.234-7.363c-2.918-8.721-11.377-11.631-22.468-11.779
			c-1.161,4.162,1.979,3.814,1.404,7.361c7.113-1.793,5.453,4.285,15.447,2.947c3.748,6.867,11.264,9.783,15.447,16.195
			c12.188,1.473,23.436-5.83,26.681-8.834c-0.852,0.85-6.661,3.445-7.021,0c7.125-2.844,14.354-12.051,19.66-4.418
			c2.747-3.502,2.718-9.912,5.617-13.254c6.851-0.178,10.62-3.588,14.042-7.361c7.515,0.027,10.486-4.713,19.66-2.945
			c3.02-0.297,9.604-10.178,5.618-4.416c-3.913-0.551-8.545,5.605-11.234,1.473c6.328-8.389,16.606-4.303,25.277-8.836
			c3.162,5.867,12.313,2.912,19.66,1.473c0.25-4.393-5.398-9.014,0-10.309c1.764,2.746,7.849,14.412,8.426,8.836
			c-1.09-0.33-2.77-0.041-2.808-1.475c1.743-4.654,4.083-0.275,7.021-4.414c2.502,3.805,5.371,14.916,11.234,10.307
			c-3.063,0.268-4.467-1.205-4.212-4.418c5.157-0.475,9.627,4.197,12.638,1.473c-7.725-13.596,1.591-34.502,2.809-42.701
			c-2.521,1.855-13.03,2.91-14.042,1.473c2.024-6.181,11.386-4.084,16.852-2.945c-1.023-4.018,2.79-2.965,2.808-5.891
			C184.341,299.084,176.872,311.235,169.079,316.788z M413.422,313.844c-1.084-3.771-1.4-8.35-4.213-10.309
			C410.293,307.307,410.612,311.883,413.422,313.844z M162.058,309.426c4.175-1.512,11.226-0.01,12.638-4.418
			C169.036,304.963,163.864,305.431,162.058,309.426z M121.333,321.208c0.202-1.74,2.5-3.338,0-4.42
			C121.131,318.528,118.833,320.127,121.333,321.208z M101.673,328.569c0.879-2.164,12.5-0.152,12.639-7.361
			C110.391,323.042,99.382,325.108,101.673,328.569z M410.614,327.096c0.227-1.025-0.49-8.568-1.404-4.418
			C407.975,328.286,409.963,330.053,410.614,327.096z M84.823,340.348c3.191,0.262,8.184-4.973,5.617-5.891
			C88.856,336.725,86.405,338.083,84.823,340.348z M73.588,355.075c4.232-1.943,8.666-3.674,9.83-8.834
			C78.521,347.485,75.161,350.342,73.588,355.075z M414.827,371.272c-3.104-2.146-2.779-7.885-7.021-8.836
			c-0.393,3.414-3.75,3.385-5.615,1.473c1.098-1.021,3.125-8.215,0-8.834c-6.932,18.748-14.596,36.725-26.684,50.064
			c-0.448,4.023-0.076,14.648,2.81,10.309c-2.64-1.918-0.159-10.867,2.81-11.779c0,4.416,0,8.834,0,13.252c2.34,0,4.682,0,7.021,0
			c3.215-8.898,2.319-22.109,9.829-26.506c4.828-0.645,7.873,0.582,11.234,1.473c-1.736-6.322,5.469-10.842,1.404-14.725
			c0.141,9.801-5.418-2.469-5.615-5.891c6.545,1.291-1.936-3.82,2.807-4.418C412.723,364.782,412.225,375.774,414.827,371.272z
			 M67.971,358.018C53.678,366.624,69.753,359.083,67.971,358.018L67.971,358.018z M129.759,360.965
			c3.723-0.023,8.268,0.816,8.425-2.947C136.26,355.979,129.717,356.614,129.759,360.965z M160.653,358.018
			c-3.213-1.773-14.382,2.109-16.852,1.475C146.93,361.331,159.638,363.038,160.653,358.018z M191.547,358.018
			c-2.469,0.85-8.251-1.779-8.425,1.475C185.59,358.643,191.372,361.272,191.547,358.018z M184.526,363.909
			c-0.163-2.102-9.771-3.895-5.617-1.473c4.266,2.398,8.985,4.322,15.447,4.418C195.481,361.256,187.716,364.981,184.526,363.909z
			 M117.12,368.327c4.781,0.988,11.69-3.316,8.426-5.891C124.014,365.739,118.652,365.026,117.12,368.327z M164.866,363.909
			c-4.728,0.934-13.043-1.896-15.447,1.473C153.377,368.458,161.783,366.356,164.866,363.909z M49.715,377.163
			c4.323-1.357,5.614-5.895,8.426-8.836C53.005,368.833,51.715,373.368,49.715,377.163z M100.27,371.272
			c4.437,0.234,8.475,0.053,9.829-2.945C106.433,368.899,102.395,369.083,100.27,371.272z M87.63,380.108
			c1.286-1.406,9.693-6.686,5.617-4.42C91.148,376.112,83.103,377.584,87.63,380.108z M247.718,388.942
			c-0.287-2.783,0.947-14.549-1.405-10.309C246.601,381.417,245.367,393.182,247.718,388.942z M49.715,383.051
			C44.631,390.006,57.937,385.01,49.715,383.051L49.715,383.051z M413.422,396.303c-1.035-7.465,3.482-9.109,5.615-13.252
			C412.598,381.311,410.444,397.756,413.422,396.303z M232.271,390.415C224.134,386.167,228.576,394.047,232.271,390.415
			L232.271,390.415z M250.526,405.139c-1.149-2.82-0.895-14.637-2.808-11.779C247.382,397.737,249.008,407.581,250.526,405.139z
			 M396.57,403.667c0.097-4.318,3.21-5.469,5.618-7.363c0.365,2.07,3.08,1.68,4.213,2.945c0.203-4.141-3.439-4.248-7.021-4.416
			C398.805,397.315,392.764,401.45,396.57,403.667z M419.038,403.667c0.188-1.936,0.215-10.654-1.402-5.891
			C417.45,399.711,417.422,408.43,419.038,403.667z M407.805,402.194c2.41,0.098,2.82,9.574,5.617,4.418
			c-3.91,0.664,1.104-8.025-2.809-7.363C410.598,401.198,408.153,400.594,407.805,402.194z M400.784,415.448
			c-1.105-6.561,0.959-9.793,2.809-13.254C396.981,399.448,395.394,415.141,400.784,415.448z M395.168,409.555
			c0.381-2.004-0.871-5.746-1.405-2.943C393.379,408.618,394.633,412.36,395.168,409.555z M372.7,415.448
			c0.225-1.025-0.492-8.57-1.404-4.418C370.061,416.635,372.047,418.405,372.7,415.448z M348.827,464.04
			c0.381-2.004-0.871-5.748-1.406-2.943C347.04,463.1,348.292,466.84,348.827,464.04z M347.42,483.182
			c2.603,3.578,0.949-9.707,1.406-13.252c-1.277-2.922-4.718-2.922-1.406,0C344.868,475.397,347.801,475.438,347.42,483.182z
			 M354.442,481.709c0.219-5.627-0.072-10.723-2.809-13.254C352.896,472.534,348.75,482.282,354.442,481.709z M333.377,478.764
			c-3.145,4.557-5.836,9.586-7.021,16.197c0.045,2.453-0.06,4.91,0,7.363c0.417,17.242-0.229-1.863,1.405-8.836
			c1.599-6.822,4.555-12.008,7.021-13.252c3.254-0.471,5.391,0.236,7.021,1.473C343.008,476.141,335.518,476.5,333.377,478.764z
			 M264.569,481.709c0.951,1.629,4.667,7.639,5.617,4.418C270.855,479.692,251.678,479.983,264.569,481.709z M285.633,496.434
			c8.776-23.623,29.996-2.863,22.468,19.143c2.341,0,4.681,0,7.021,0c0.655-14.918-3.181-25.131-9.829-32.395
			C293.93,481.598,283.565,488.836,285.633,496.434z M337.59,486.127C338.198,500.338,337.325,479.862,337.59,486.127
			L337.59,486.127z M260.356,506.743c2.897-4.814-0.262-15.982,4.213-19.143C252.892,479.538,251.317,505.489,260.356,506.743z
			 M336.188,506.743c1.145-2.256-0.675-13.961-2.809-17.67C332.297,492.034,328.444,508.362,336.188,506.743z M294.059,509.688
			c-1.608-9.049,4.883-9.605,2.809-19.145c-9.304,1.533-8.631,13.529-8.425,25.033c3.845,3.512,8.484,2.92,14.042,1.473
			c0-6.871,0-13.742,0-20.615c-4.305,2.85,2.088,16.916-4.213,17.672C294.979,510.165,301.045,507.106,294.059,509.688z
			 M340.4,497.909c-1.56-8.377-2.812,2.686,0,8.834C343.097,502.266,340.816,500.147,340.4,497.909z M271.591,509.688
			c-0.006-2.631,3.781-8.566,0-10.309C273.525,504.034,268.114,508.268,271.591,509.688z M284.229,515.577
			c-1.31-5.852,1.11-14.07-1.404-13.252C282.333,507.28,279.634,513.059,284.229,515.577z"/>
		<path d="M517.338,57.627c6.252,3.121-5.623,7.448-7.021,11.78c-1.439,7.656-1.439,12.961,0,20.615
			c-4.951-3.11-6.283-9.435-11.234-8.835c0-2.454,0-4.909,0-7.363c6.223,2.908,2.564-3.943,4.213-5.89
			C506.838,63.751,513.403,64.37,517.338,57.627z"/>
		<path d="M253.335,338.875c3.228,1.846,10.198-4.963,14.042-7.361c6.492,7.494,15.587-3.59,26.682-4.418
			c7.817-0.584,22.865,1.707,21.064,10.309c4.327,1.1,1.711-5.076,7.021-2.945c-3.7,4.055,0.528,8.1,4.213,8.834
			c-3.866,7.518-1.731,11.201,1.405,19.145c-9.428-3.658-14.308-14.064-25.277-16.197c-6.982-1.357-11.355-0.898-15.447-5.891
			c1.262-2.604,3.39-4.299,4.213-7.363c-12.889,3.613-27.178,6.986-32.298,14.727c-7.956-1.791-10.116-1.244-16.851-2.945
			c3.742-9.646,7.989-10.24,16.851-13.252C257.313,334.213,255.281,336.5,253.335,338.875z M299.676,332.987
			c0.245-2.402-9.187-2.975-7.021,1.473C295.095,331.907,303.345,334.934,299.676,332.987z"/>
		<path d="M278.612,430.172c12.288,4.275,29.285,2.938,43.532,1.471c-3.233,3.564,1.431,7.154,1.403,11.779
			c-3.307-0.031-4.133,2.539-8.424,1.475c-1.792,5.807,3.842,3.822,5.618,5.891c-0.77,5.172-8.145,2.363-11.235,1.473
			c-3.842,1.34,2.492,5.16-1.405,7.363c-12.312-0.834-22.454-3.943-36.511-2.945c-1.805-7.84,16.811-1.932,11.234-8.836
			c0.175-3.252,5.957-0.625,8.426-1.473c-3.808-3.369-12.46-1.66-16.852-4.416c1.592-6.037,6.224-0.354,11.234-1.473
			C287.927,432.184,276.611,438.161,278.612,430.172z M291.25,441.954c-0.32-2.609,1.416-7.375-2.808-5.891
			C288.049,439.418,288.78,441.598,291.25,441.954z M313.719,441.954c3.7,0.443,4.608-2.039,4.213-5.891c-1.405,0-2.809,0-4.213,0
			C313.719,438.026,313.719,439.989,313.719,441.954z M295.463,441.954c1.259-0.234,0.72-8.146-1.404-2.945
			C293.7,439.883,294.633,442.106,295.463,441.954z M299.676,441.954c1.404,0,2.809,0,4.213,0c0.254-3.213-1.149-4.688-4.213-4.418
			C299.676,439.006,299.676,440.481,299.676,441.954z M306.697,441.954c1.404,0,2.809,0,4.213,0c0-1.473,0-2.945,0-4.418
			c-1.404,0-2.809,0-4.213,0C306.697,439.006,306.697,440.481,306.697,441.954z M301.08,449.315c0.937,0,1.873,0,2.809,0
			c0-0.982,0-1.963,0-2.945c-0.936,0-1.872,0-2.809,0C301.08,447.352,301.08,448.333,301.08,449.315z M312.314,447.84
			c-1.795-0.08-1.945-1.887-4.213-1.471C305.918,449.993,312.871,450.7,312.314,447.84z M285.633,452.26c0.936,0,1.873,0,2.809,0
			c0-0.982,0-1.965,0-2.945c-0.937,0-1.873,0-2.809,0C285.633,450.295,285.633,451.278,285.633,452.26z M292.655,453.731
			c1.404,0,2.809,0,4.213,0c0.181-2.643-1.395-3.445-4.213-2.943C292.655,451.768,292.655,452.75,292.655,453.731z M299.676,455.206
			c2.488-0.336,7.033,1.482,5.618-2.945c-1.874,0-3.746,0-5.618,0C299.676,453.241,299.676,454.223,299.676,455.206z"/>
	</g>
	<path fill="#FFFFFF" d="M560.944,26.181c0,0-1.131,4.743,0.564,7.51c1.697,2.767,3.959,6.918,10.367,5.139
		c6.41-1.779-2.828,0.592-4.336-6.721c-1.506-7.312,0-8.696,0-8.696s-1.318-0.593-3.957,0.791
		C560.944,25.587,560.944,26.181,560.944,26.181z"/>
</g>
</svg>
