<?xml version="1.0" encoding="UTF-8" standalone="no"?>
<!-- Created with Inkscape (http://www.inkscape.org/) -->

<svg
   xmlns:dc="http://purl.org/dc/elements/1.1/"
   xmlns:cc="http://creativecommons.org/ns#"
   xmlns:rdf="http://www.w3.org/1999/02/22-rdf-syntax-ns#"
   xmlns:svg="http://www.w3.org/2000/svg"
   xmlns="http://www.w3.org/2000/svg"
   xmlns:xlink="http://www.w3.org/1999/xlink"
   xmlns:sodipodi="http://sodipodi.sourceforge.net/DTD/sodipodi-0.dtd"
   xmlns:inkscape="http://www.inkscape.org/namespaces/inkscape"
   width="480"
   height="854"
   id="svg2"
   version="1.1"
   inkscape:version="0.47 r22583"
   sodipodi:docname="droid.svg">
  <defs
     id="defs4">
    <linearGradient
       inkscape:collect="always"
       id="linearGradient5247">
      <stop
         style="stop-color:#ff9966;stop-opacity:1;"
         offset="0"
         id="stop5249" />
      <stop
         style="stop-color:#ff9966;stop-opacity:0;"
         offset="1"
         id="stop5251" />
    </linearGradient>
    <inkscape:perspective
       sodipodi:type="inkscape:persp3d"
       inkscape:vp_x="0 : 526.18109 : 1"
       inkscape:vp_y="0 : 1000 : 0"
       inkscape:vp_z="744.09448 : 526.18109 : 1"
       inkscape:persp3d-origin="372.04724 : 350.78739 : 1"
       id="perspective10" />
    <inkscape:perspective
       id="perspective3099"
       inkscape:persp3d-origin="0.5 : 0.33333333 : 1"
       inkscape:vp_z="1 : 0.5 : 1"
       inkscape:vp_y="0 : 1000 : 0"
       inkscape:vp_x="0 : 0.5 : 1"
       sodipodi:type="inkscape:persp3d" />
    <inkscape:perspective
       id="perspective3173"
       inkscape:persp3d-origin="0.5 : 0.33333333 : 1"
       inkscape:vp_z="1 : 0.5 : 1"
       inkscape:vp_y="0 : 1000 : 0"
       inkscape:vp_x="0 : 0.5 : 1"
       sodipodi:type="inkscape:persp3d" />
    <inkscape:perspective
       id="perspective3244"
       inkscape:persp3d-origin="0.5 : 0.33333333 : 1"
       inkscape:vp_z="1 : 0.5 : 1"
       inkscape:vp_y="0 : 1000 : 0"
       inkscape:vp_x="0 : 0.5 : 1"
       sodipodi:type="inkscape:persp3d" />
    <inkscape:perspective
       id="perspective3315"
       inkscape:persp3d-origin="0.5 : 0.33333333 : 1"
       inkscape:vp_z="1 : 0.5 : 1"
       inkscape:vp_y="0 : 1000 : 0"
       inkscape:vp_x="0 : 0.5 : 1"
       sodipodi:type="inkscape:persp3d" />
    <inkscape:perspective
       id="perspective3386"
       inkscape:persp3d-origin="0.5 : 0.33333333 : 1"
       inkscape:vp_z="1 : 0.5 : 1"
       inkscape:vp_y="0 : 1000 : 0"
       inkscape:vp_x="0 : 0.5 : 1"
       sodipodi:type="inkscape:persp3d" />
    <linearGradient
       y2="159.33842"
       x2="424.88916"
       y1="565.91364"
       x1="6.1493402"
       gradientTransform="scale(1.387506,0.720718)"
       gradientUnits="userSpaceOnUse"
       id="linearGradient4378"
       xlink:href="#linearGradient4361"
       inkscape:collect="always" />
    <linearGradient
       y2="261.86707"
       x2="476.36588"
       y1="86.772072"
       x1="928.33643"
       gradientTransform="scale(0.766489,1.304650)"
       gradientUnits="userSpaceOnUse"
       id="linearGradient4376"
       xlink:href="#linearGradient4339"
       inkscape:collect="always" />
    <linearGradient
       id="linearGradient4339">
      <stop
         id="stop4341"
         offset="0.0000000"
         style="stop-color:#000000;stop-opacity:0.75000000;" />
      <stop
         id="stop4343"
         offset="1.0000000"
         style="stop-color:#000000;stop-opacity:0.22321428;" />
    </linearGradient>
    <linearGradient
       id="linearGradient4361">
      <stop
         id="stop4363"
         offset="0"
         style="stop-color:#0085dc;stop-opacity:1;" />
      <stop
         id="stop4365"
         offset="1.0000000"
         style="stop-color:#005892;stop-opacity:1.0000000;" />
    </linearGradient>
    <linearGradient
       id="linearGradient5140">
      <stop
         id="stop5142"
         offset="0.0000000"
         style="stop-color:#000000;stop-opacity:0.60714287;" />
      <stop
         id="stop5144"
         offset="1"
         style="stop-color:#000000;stop-opacity:0;" />
    </linearGradient>
    <linearGradient
       id="linearGradient6667">
      <stop
         id="stop6669"
         offset="0"
         style="stop-color:#e20a47;stop-opacity:1;" />
      <stop
         id="stop6671"
         offset="1.0000000"
         style="stop-color:#760525;stop-opacity:1.0000000;" />
    </linearGradient>
    <linearGradient
       id="linearGradient2833">
      <stop
         style="stop-color:#ffffff;stop-opacity:0.55357140;"
         offset="0.0000000"
         id="stop2835" />
      <stop
         style="stop-color:#ffffff;stop-opacity:0;"
         offset="1"
         id="stop2837" />
    </linearGradient>
    <linearGradient
       id="linearGradient2875">
      <stop
         style="stop-color:#ffffff;stop-opacity:0.0000000;"
         offset="0.0000000"
         id="stop2877" />
      <stop
         style="stop-color:#ffffff;stop-opacity:0.39285713;"
         offset="0.44897959"
         id="stop2881" />
      <stop
         style="stop-color:#ffffff;stop-opacity:0.0000000;"
         offset="1.0000000"
         id="stop2879" />
    </linearGradient>
    <inkscape:perspective
       id="perspective4871"
       inkscape:persp3d-origin="64 : 42.666667 : 1"
       inkscape:vp_z="128 : 64 : 1"
       inkscape:vp_y="0 : 1000 : 0"
       inkscape:vp_x="0 : 64 : 1"
       sodipodi:type="inkscape:persp3d" />
    <linearGradient
       y2="61.201187"
       x2="73.967102"
       y1="71.153831"
       x1="62.581360"
       gradientTransform="scale(0.907927,1.101411)"
       gradientUnits="userSpaceOnUse"
       id="linearGradient1181"
       xlink:href="#linearGradient3970"
       inkscape:collect="always" />
    <linearGradient
       y2="770.24116"
       x2="-68.033922"
       y1="850.16606"
       x1="-140.07748"
       gradientTransform="matrix(0.588289,-4.618913e-17,5.463783e-17,0.520479,169.5319,-352.0899)"
       gradientUnits="userSpaceOnUse"
       id="linearGradient1180"
       xlink:href="#linearGradient924"
       inkscape:collect="always" />
    <linearGradient
       y2="945.56316"
       x2="-159.46551"
       y1="859.05705"
       x1="-159.08747"
       gradientTransform="matrix(0.588289,-4.618913e-17,5.463783e-17,0.520479,169.5319,-352.0899)"
       gradientUnits="userSpaceOnUse"
       id="linearGradient1179"
       xlink:href="#linearGradient924"
       inkscape:collect="always" />
    <linearGradient
       y2="752.38951"
       x2="-276.59079"
       y1="844.92277"
       x1="-206.25452"
       gradientTransform="matrix(0.580941,-4.561226e-17,5.532885e-17,0.527062,169.5319,-352.0899)"
       gradientUnits="userSpaceOnUse"
       id="linearGradient1178"
       xlink:href="#linearGradient924"
       inkscape:collect="always" />
    <linearGradient
       y2="935.02544"
       x2="-197.61969"
       y1="841.06058"
       x1="-205.62921"
       gradientTransform="matrix(0.580941,-4.561226e-17,5.532885e-17,0.527062,169.5319,-352.0899)"
       gradientUnits="userSpaceOnUse"
       id="linearGradient1177"
       xlink:href="#linearGradient924"
       inkscape:collect="always" />
    <linearGradient
       y2="631.40373"
       x2="-192.35384"
       y1="589.75158"
       x1="-240.79978"
       gradientTransform="matrix(0.466594,-3.663435e-17,6.888818e-17,0.656227,169.5319,-352.0899)"
       gradientUnits="userSpaceOnUse"
       id="linearGradient1176"
       xlink:href="#linearGradient3658"
       inkscape:collect="always" />
    <radialGradient
       r="125.20509"
       fy="552.23832"
       fx="-285.65439"
       cy="598.36652"
       cx="-289.09140"
       gradientUnits="userSpaceOnUse"
       id="radialGradient1175"
       xlink:href="#linearGradient1851"
       inkscape:collect="always" />
    <linearGradient
       gradientUnits="userSpaceOnUse"
       y2="55.909710"
       x2="61.782478"
       y1="49.792969"
       x1="66.753540"
       gradientTransform="scale(0.829802,1.205106)"
       id="linearGradient194"
       xlink:href="#linearGradient124"
       inkscape:collect="always" />
    <linearGradient
       y2="67.791361"
       x2="118.07529"
       y1="16.079463"
       x1="99.916230"
       gradientTransform="matrix(0.444853,0.000000,0.000000,0.584059,19.67718,27.07462)"
       gradientUnits="userSpaceOnUse"
       id="linearGradient133"
       xlink:href="#linearGradient3970"
       inkscape:collect="always" />
    <linearGradient
       y2="51.483600"
       x2="185.22380"
       y1="50.709235"
       x1="216.72390"
       gradientTransform="matrix(0.347191,0.000000,0.000000,0.877879,18.97523,22.40405)"
       gradientUnits="userSpaceOnUse"
       id="linearGradient130"
       xlink:href="#MaterialSoftShadow"
       inkscape:collect="always" />
    <linearGradient
       y2="32.239483"
       x2="116.88215"
       y1="37.529274"
       x1="115.30505"
       gradientTransform="matrix(0.747717,0.000000,0.000000,1.745679,-8.737526,-9.485999)"
       gradientUnits="userSpaceOnUse"
       id="linearGradient129"
       xlink:href="#linearGradient924"
       inkscape:collect="always" />
    <radialGradient
       gradientUnits="userSpaceOnUse"
       r="55.617432"
       fy="64.955132"
       fx="69.333870"
       cy="64.955132"
       cx="69.333870"
       gradientTransform="scale(0.948683,1.054093)"
       id="radialGradient96"
       xlink:href="#linearGradient3970"
       inkscape:collect="always" />
    <linearGradient
       y2="67.791361"
       x2="118.07529"
       y1="16.079463"
       x1="99.916230"
       gradientTransform="matrix(0.389373,0.000000,0.000000,0.511218,24.87095,32.00095)"
       gradientUnits="userSpaceOnUse"
       id="linearGradient666"
       xlink:href="#linearGradient3970"
       inkscape:collect="always" />
    <linearGradient
       y2="51.483600"
       x2="185.22380"
       y1="50.709235"
       x1="216.72390"
       gradientTransform="matrix(0.303891,0.000000,0.000000,0.768394,24.25655,27.91287)"
       gradientUnits="userSpaceOnUse"
       id="linearGradient665"
       xlink:href="#MaterialSoftShadow"
       inkscape:collect="always" />
    <linearGradient
       y2="32.239483"
       x2="116.88215"
       y1="37.529274"
       x1="115.30505"
       gradientTransform="scale(0.654465,1.527966)"
       gradientUnits="userSpaceOnUse"
       id="linearGradient664"
       xlink:href="#linearGradient924"
       inkscape:collect="always" />
    <linearGradient
       y2="83.462575"
       x2="135.99872"
       y1="65.844092"
       x1="130.06407"
       gradientTransform="matrix(0.676565,0.000000,0.000000,1.475250,-14.85057,-14.52200)"
       gradientUnits="userSpaceOnUse"
       id="linearGradient663"
       xlink:href="#linearGradient924"
       inkscape:collect="always" />
    <linearGradient
       id="MaterialSoftShadow">
      <stop
         id="stop2619"
         offset="0"
         style="stop-color:#000000;stop-opacity:0.215;" />
      <stop
         id="stop2621"
         offset="0.50000000"
         style="stop-color:#000000;stop-opacity:0.098;" />
      <stop
         id="stop2620"
         offset="1"
         style="stop-color:#000000;stop-opacity:0;" />
    </linearGradient>
    <linearGradient
       id="linearGradient3970">
      <stop
         id="stop3971"
         offset="0.0000000"
         style="stop-color:#ffffff;stop-opacity:1.0000000;" />
      <stop
         id="stop3972"
         offset="1.0000000"
         style="stop-color:#ffffff;stop-opacity:0.0000000;" />
    </linearGradient>
    <linearGradient
       id="linearGradient924">
      <stop
         id="stop925"
         offset="0.00000000"
         style="stop-color:#ffffff;stop-opacity:0.00000000;" />
      <stop
         id="stop926"
         offset="1.00000000"
         style="stop-color:#ffffff;stop-opacity:1;" />
    </linearGradient>
    <radialGradient
       gradientUnits="userSpaceOnUse"
       fy="552.23832"
       fx="-285.65439"
       r="125.20509"
       cy="598.36652"
       cx="-289.09140"
       id="radialGradient1875"
       xlink:href="#linearGradient1851"
       inkscape:collect="always" />
    <linearGradient
       id="linearGradient1851"
       inkscape:collect="always">
      <stop
         id="stop1852"
         offset="0.0000000"
         style="stop-color:#000000;stop-opacity:0.20000000;" />
      <stop
         id="stop1854"
         offset="0.50000000"
         style="stop-color:#000000;stop-opacity:0.064516127;" />
      <stop
         id="stop1853"
         offset="1.0000000"
         style="stop-color:#adadad;stop-opacity:0.0000000;" />
    </linearGradient>
    <linearGradient
       id="linearGradient3658">
      <stop
         id="stop3659"
         offset="0.0000000"
         style="stop-color:#000000;stop-opacity:0.56774193;" />
      <stop
         id="stop3660"
         offset="1.0000000"
         style="stop-color:#000000;stop-opacity:0.0000000;" />
    </linearGradient>
    <linearGradient
       id="linearGradient121">
      <stop
         id="stop122"
         offset="0.00000000"
         style="stop-color:#ffffff;stop-opacity:0.00000000;" />
      <stop
         id="stop123"
         offset="1.00000000"
         style="stop-color:#ffffff;stop-opacity:1;" />
    </linearGradient>
    <linearGradient
       id="linearGradient124">
      <stop
         id="stop125"
         offset="0.00000000"
         style="stop-color:#ffffff;stop-opacity:0.00000000;" />
      <stop
         id="stop126"
         offset="1.00000000"
         style="stop-color:#ffffff;stop-opacity:1;" />
    </linearGradient>
    <linearGradient
       id="linearGradient127">
      <stop
         id="stop128"
         offset="0.00000000"
         style="stop-color:#ffffff;stop-opacity:0.00000000;" />
      <stop
         id="stop129"
         offset="1.00000000"
         style="stop-color:#ffffff;stop-opacity:1;" />
    </linearGradient>
    <linearGradient
       id="linearGradient134">
      <stop
         id="stop135"
         offset="0.00000000"
         style="stop-color:#ffffff;stop-opacity:0.00000000;" />
      <stop
         id="stop136"
         offset="1.00000000"
         style="stop-color:#ffffff;stop-opacity:1;" />
    </linearGradient>
    <linearGradient
       id="linearGradient137">
      <stop
         id="stop138"
         offset="0.00000000"
         style="stop-color:#ffffff;stop-opacity:0.00000000;" />
      <stop
         id="stop139"
         offset="1.00000000"
         style="stop-color:#ffffff;stop-opacity:1;" />
    </linearGradient>
    <linearGradient
       id="TransparentWhite">
      <stop
         id="stopwhitefull"
         offset="0"
         style="stop-color:#ffffff;stop-opacity:0;" />
      <stop
         id="stopwhitetransparent"
         offset="1"
         style="stop-color:#ffffff;stop-opacity:1;" />
    </linearGradient>
    <inkscape:perspective
       id="perspective5123"
       inkscape:persp3d-origin="64 : 42.666667 : 1"
       inkscape:vp_z="128 : 64 : 1"
       inkscape:vp_y="0 : 1000 : 0"
       inkscape:vp_x="0 : 64 : 1"
       sodipodi:type="inkscape:persp3d" />
    <radialGradient
       inkscape:collect="always"
       xlink:href="#linearGradient5140"
       id="radialGradient5219"
       gradientUnits="userSpaceOnUse"
       gradientTransform="scale(1.220046,0.819641)"
       cx="47.883598"
       cy="131.04111"
       fx="47.883598"
       fy="131.04111"
       r="44.151741" />
    <linearGradient
       inkscape:collect="always"
       xlink:href="#linearGradient4339"
       id="linearGradient5221"
       gradientUnits="userSpaceOnUse"
       gradientTransform="matrix(0.126858,0,0,0.215926,5.959349,13.64162)"
       x1="928.33643"
       y1="86.772072"
       x2="476.36588"
       y2="261.86707" />
    <linearGradient
       inkscape:collect="always"
       xlink:href="#linearGradient6667"
       id="linearGradient5223"
       gradientUnits="userSpaceOnUse"
       gradientTransform="matrix(1.000753,0,0,0.999247,-4.04061,-6.060915)"
       x1="15.689724"
       y1="110.21976"
       x2="54.499157"
       y2="69.203850" />
    <linearGradient
       inkscape:collect="always"
       xlink:href="#linearGradient4361"
       id="linearGradient5225"
       gradientUnits="userSpaceOnUse"
       gradientTransform="matrix(0.229639,0,0,0.119282,5.959349,13.64162)"
       x1="6.1493402"
       y1="565.91364"
       x2="424.88916"
       y2="159.33842" />
    <linearGradient
       inkscape:collect="always"
       xlink:href="#linearGradient2833"
       id="linearGradient5227"
       gradientUnits="userSpaceOnUse"
       gradientTransform="scale(1.464169,0.682981)"
       x1="7.7534933"
       y1="117.34248"
       x2="49.592522"
       y2="73.870537" />
    <linearGradient
       inkscape:collect="always"
       xlink:href="#linearGradient2875"
       id="linearGradient5229"
       gradientUnits="userSpaceOnUse"
       gradientTransform="scale(1.278872,0.781939)"
       x1="25.326788"
       y1="111.60412"
       x2="18.619133"
       y2="124.04469" />
    <radialGradient
       inkscape:collect="always"
       xlink:href="#linearGradient1851"
       id="radialGradient5231"
       gradientUnits="userSpaceOnUse"
       cx="-289.09140"
       cy="598.36652"
       fx="-285.65439"
       fy="552.23832"
       r="125.20509" />
    <linearGradient
       inkscape:collect="always"
       xlink:href="#linearGradient3658"
       id="linearGradient5233"
       gradientUnits="userSpaceOnUse"
       gradientTransform="matrix(0.481924,0.263729,-0.370913,0.677787,408.6453,-309.4911)"
       x1="-240.79978"
       y1="589.75158"
       x2="-192.35384"
       y2="631.40373" />
    <linearGradient
       inkscape:collect="always"
       xlink:href="#linearGradient924"
       id="linearGradient5235"
       gradientUnits="userSpaceOnUse"
       gradientTransform="matrix(0.600027,0.32836,-0.297907,0.544378,408.6453,-309.491)"
       x1="-205.62921"
       y1="841.06058"
       x2="-197.61969"
       y2="935.02544" />
    <linearGradient
       inkscape:collect="always"
       xlink:href="#linearGradient924"
       id="linearGradient5237"
       gradientUnits="userSpaceOnUse"
       gradientTransform="matrix(0.600027,0.32836,-0.297907,0.544378,408.6453,-309.491)"
       x1="-206.25452"
       y1="844.92277"
       x2="-276.59079"
       y2="752.38951" />
    <linearGradient
       inkscape:collect="always"
       xlink:href="#linearGradient924"
       id="linearGradient5239"
       gradientUnits="userSpaceOnUse"
       gradientTransform="matrix(0.607617,0.332513,-0.294186,0.537579,408.6453,-309.491)"
       x1="-159.08747"
       y1="859.05705"
       x2="-159.46551"
       y2="945.56316" />
    <linearGradient
       inkscape:collect="always"
       xlink:href="#linearGradient924"
       id="linearGradient5241"
       gradientUnits="userSpaceOnUse"
       gradientTransform="matrix(0.607617,0.332513,-0.294186,0.537579,408.6453,-309.491)"
       x1="-140.07748"
       y1="850.16606"
       x2="-68.033922"
       y2="770.24116" />
    <linearGradient
       inkscape:collect="always"
       xlink:href="#linearGradient3970"
       id="linearGradient5243"
       gradientUnits="userSpaceOnUse"
       gradientTransform="matrix(0.937756,0.513179,-0.62254,1.137597,34.53498,-41.65645)"
       x1="62.581360"
       y1="71.153831"
       x2="73.967102"
       y2="61.201187" />
    <radialGradient
       inkscape:collect="always"
       xlink:href="#linearGradient5247"
       id="radialGradient5255"
       cx="217.11926"
       cy="188.6488"
       fx="217.11926"
       fy="188.6488"
       r="222.61172"
       gradientUnits="userSpaceOnUse"
       gradientTransform="matrix(0.69711213,1,-1.9766834,1.37797,474.08062,-41.274817)"
       spreadMethod="repeat" />
  </defs>
  <sodipodi:namedview
     id="base"
     pagecolor="#ffffff"
     bordercolor="#666666"
     borderopacity="1.0"
     inkscape:pageopacity="0.0"
     inkscape:pageshadow="2"
     inkscape:zoom="0.35"
     inkscape:cx="224.36272"
     inkscape:cy="684.49716"
     inkscape:document-units="px"
     inkscape:current-layer="layer1"
     showgrid="false"
     inkscape:window-width="1024"
     inkscape:window-height="730"
     inkscape:window-x="-1"
     inkscape:window-y="16"
     inkscape:window-maximized="1">
    <inkscape:grid
       type="xygrid"
       id="grid2987"
       empspacing="5"
       visible="true"
       enabled="true"
       snapvisiblegridlinesonly="true"
       spacingx="15px"
       spacingy="15px" />
  </sodipodi:namedview>
  <metadata
     id="metadata7">
    <rdf:RDF>
      <cc:Work
         rdf:about="">
        <dc:format>image/svg+xml</dc:format>
        <dc:type
           rdf:resource="http://purl.org/dc/dcmitype/StillImage" />
        <dc:title />
      </cc:Work>
    </rdf:RDF>
  </metadata>
  <g
     inkscape:label="Layer 1"
     inkscape:groupmode="layer"
     id="layer1"
     transform="translate(0,-198.36217)"
     style="display:none">
    <image
       sodipodi:absref="/home/uri/Documents/InterArt/css-templates/background.png"
       xlink:href="background.png"
       width="492"
       height="840"
       id="image3101"
       x="0"
       y="208.36217" />
    <image
       sodipodi:absref="/home/uri/Documents/InterArt/css-templates/drawable/title.png"
       xlink:href="drawable/title.png"
       width="480.28571"
       height="75.136719"
       id="image3175"
       x="15.857142"
       y="215.29381" />
    <image
       sodipodi:absref="/home/uri/Documents/InterArt/css-templates/drawable/play.png"
       xlink:href="drawable/play.png"
       width="306.09805"
       height="149.24184"
       id="image3246"
       x="95.429504"
       y="421.65259" />
    <image
       sodipodi:absref="/home/uri/Documents/InterArt/css-templates/drawable/options.png"
       xlink:href="drawable/options.png"
       width="466"
       height="147.71895"
       id="image3317"
       x="5"
       y="576.74127" />
    <image
       sodipodi:absref="/home/uri/Documents/InterArt/css-templates/drawable/help.png"
       xlink:href="drawable/help.png"
       width="274.11765"
       height="149.24184"
       id="image3388"
       x="103.98693"
       y="723.25854" />
  </g>
  <g
     inkscape:groupmode="layer"
     id="layer2"
     inkscape:label="Layer"
     sodipodi:insensitive="true"
     style="display:inline">
    <rect
       style="fill:#000000;fill-opacity:1;stroke:none"
       id="rect3393"
       width="482.57358"
       height="856.57874"
       x="0"
       y="-1.3045764" />
  </g>
  <g
     inkscape:groupmode="layer"
     id="layer3"
     inkscape:label="Layer#1"
     sodipodi:insensitive="true"
     style="display:inline">
    <g
       id="g5196"
       transform="translate(4.0406106,178.46702)">
      <g
         transform="translate(103.47672,216.57087)"
         inkscape:label="Layer 1"
         id="layer1-9">
        <path
           sodipodi:type="arc"
           style="fill:url(#radialGradient5219);fill-opacity:1;fill-rule:evenodd;stroke:none"
           id="path4380"
           sodipodi:cx="63.387074"
           sodipodi:cy="107.54441"
           sodipodi:rx="57.831234"
           sodipodi:ry="37.776855"
           d="m 121.21831,107.54441 a 57.831234,37.776855 0 1 1 -115.6624705,0 57.831234,37.776855 0 1 1 115.6624705,0 z"
           transform="matrix(1.105804,-0.714064,0.652553,1.032692,-71.59428,0.546336)" />
        <path
           style="fill:#0075ca;fill-opacity:1;fill-rule:evenodd;stroke:#000000;stroke-width:1.08405781;stroke-linecap:round;stroke-linejoin:round;stroke-miterlimit:4;stroke-opacity:1;stroke-dashoffset:5.4"
           d="M 3.0754029,66.619274 5.1234228,66.786461 5.5532675,91.357344 3.7906508,91.51736 3.0754029,66.619274 z"
           id="rect4336"
           sodipodi:nodetypes="ccccc" />
        <path
           style="fill:#003456;fill-opacity:1;fill-rule:evenodd;stroke:#000000;stroke-width:1.89668727;stroke-linecap:butt;stroke-linejoin:round;stroke-miterlimit:4;stroke-opacity:1"
           d="M 4.1400078,91.305285 62.76137,35.127618 124.96718,36.376585 78.085768,104.76676 4.1400078,91.305285 z"
           id="path3574"
           sodipodi:nodetypes="ccccc" />
        <path
           style="fill:#f5f5f5;fill-opacity:1;fill-rule:evenodd;stroke:#000000;stroke-width:0.42203775;stroke-linecap:round;stroke-linejoin:round;stroke-miterlimit:4;stroke-opacity:1;stroke-dashoffset:5.4"
           d="m 60.886336,16.094233 60.155734,3.06281 -0.37182,17.721825 L 75.515768,102.17113 5.7001363,89.633065 4.9496347,66.824727 60.886336,16.094233 z"
           id="rect1294"
           sodipodi:nodetypes="ccccccc" />
        <path
           sodipodi:nodetypes="cccccc"
           id="path2841"
           d="m 55.714285,75.142857 -4.642857,25.714283 c -5.833333,4.76191 -14.52381,5.95238 -17.5,14.28572 L 25.357143,108 21.785714,98 55.714285,75.142857 z"
           style="fill:#040404;fill-opacity:0.3;fill-rule:evenodd;stroke:none" />
        <path
           style="fill:url(#linearGradient5221);fill-opacity:1;fill-rule:evenodd;stroke:none"
           d="M 75.174063,102.21395 74.839692,74.461192 120.31409,23.636862 120.98283,36.342945 75.174063,102.21395 z"
           id="path3576"
           sodipodi:nodetypes="ccccc" />
        <path
           style="fill:url(#linearGradient5223);fill-opacity:1;fill-rule:evenodd;stroke:#000000;stroke-width:2.95000005;stroke-linecap:round;stroke-linejoin:round;stroke-miterlimit:4;stroke-opacity:1;stroke-dashoffset:5.4"
           d="m 39.311895,57.7944 c 6.902708,1.178511 13.805417,2.357023 20.708125,3.535534 C 49.469457,94.664968 30.332598,89.614204 26.348027,115.87817 18.603525,114.69966 17.677552,99.631541 6.6500538,112.84771 18.547487,75.472065 36.000759,95.170041 39.311895,57.7944 z"
           id="rect5148"
           sodipodi:nodetypes="ccccc" />
        <path
           style="fill:url(#linearGradient5225);fill-opacity:1;fill-rule:evenodd;stroke:#000000;stroke-width:1.86358631;stroke-linecap:butt;stroke-linejoin:round;stroke-miterlimit:4;stroke-opacity:1"
           d="M 3.5501639,66.668204 60.658457,16.076902 124.53612,18.997723 76.651596,78.025519 3.5501639,66.668204 z"
           id="path2056"
           sodipodi:nodetypes="ccccc" />
        <path
           sodipodi:nodetypes="ccccc"
           id="path1315"
           d="M 6.0609152,65.875619 C 16.583337,56.531708 27.10576,47.187797 37.628182,37.843886 57.662874,39.274935 53.453905,60.909035 88.893424,60.824856 85.021172,65.959798 80.138768,71.347279 76.266517,76.482221 52.86465,72.946687 29.462782,69.411153 6.0609152,65.875619 z"
           style="fill:url(#linearGradient5227);fill-opacity:1;fill-rule:evenodd;stroke:none" />
        <path
           sodipodi:nodetypes="ccccc"
           id="path2843"
           d="m 18.056477,94.033621 c 2.65165,-2.904188 6.12405,-5.555839 9.848987,-7.954951 3.640758,1.872991 8.417937,2.357023 12.248099,3.535534 -3.472399,3.009413 -6.944798,6.965843 -9.091372,9.975256 -4.272103,-2.420157 -9.175552,-3.325085 -13.005714,-5.555839 z"
           style="fill:url(#linearGradient5229);fill-opacity:1;fill-rule:evenodd;stroke:none" />
      </g>
      <g
         transform="translate(258.51688,213.46159)"
         id="g5185">
        <path
           sodipodi:type="arc"
           style="fill:url(#radialGradient5231);fill-opacity:0.75;fill-rule:evenodd;stroke:none"
           id="path3995"
           sodipodi:cx="-289.0914"
           sodipodi:cy="598.36652"
           sodipodi:rx="125.20509"
           sodipodi:ry="125.20509"
           d="m -163.88631,598.36652 a 125.20509,125.20509 0 1 1 -250.41018,0 125.20509,125.20509 0 1 1 250.41018,0 z"
           transform="matrix(-0.352957,0.00279877,5.125628e-4,0.06463434,-43.64993,79.15271)" />
        <path
           style="fill:#919191;fill-opacity:1;fill-rule:evenodd;stroke:#000000;stroke-width:2.35479283;stroke-linecap:butt;stroke-linejoin:miter;stroke-miterlimit:4;stroke-opacity:1"
           d="m 118.80129,40.449278 c -2.77433,7.2048 -14.39432,21.925455 -29.988939,26.260395 L 58.96269,78.076108 c -6.672017,2.377683 -6.053588,-6.880777 -18.088135,9.921819 -4.667969,7.545256 -15.259325,6.769962 -20.734257,1.923165 -6.270118,-5.550778 -5.438678,-15.102211 -1.48152,-19.572209 5.000667,-5.648736 13.712519,-6.647688 18.185526,-2.820844 4.632243,3.967812 4.467384,9.920654 6.778523,8.700286 L 118.80129,40.449278 z M 35.681078,72.711044 c -3.691747,-3.268208 -9.341542,-2.924376 -12.609746,0.767367 -3.268222,3.691761 -2.924393,9.341562 0.767346,12.609756 3.691755,3.268208 9.341564,2.924403 12.609775,-0.76735 3.268204,-3.691757 2.924379,-9.341563 -0.767375,-12.609773 z"
           id="path3996"
           sodipodi:nodetypes="cccccccccccccc" />
        <path
           style="fill:url(#linearGradient5233)"
           d="M 53.432229,72.358254 116.37043,43.280462 c 0,0 -11.11008,16.983475 -27.124083,22.021654 -16.013992,5.038178 -29.076289,11.691652 -31.06393,12.273282 l -4.750188,-5.217144 z"
           id="path3997"
           sodipodi:nodetypes="ccccc" />
        <path
           style="fill:#424242;fill-opacity:1;fill-rule:evenodd;stroke:none"
           d="m 58.96269,78.076108 c -6.672017,2.377683 -6.053588,-6.880777 -18.088135,9.921819 -4.667969,7.545256 -15.259325,6.769962 -20.734257,1.923165 -6.270118,-5.550778 -5.438678,-15.102211 -1.48152,-19.572209 5.000667,-5.648736 13.712519,-6.647688 18.185526,-2.820844 4.632243,3.967812 4.467384,9.920654 6.778523,8.700286 l 14.111965,-6.301999 1.227898,8.149782 z M 35.681078,72.711044 c -3.691747,-3.268208 -9.341542,-2.924376 -12.609746,0.767367 -3.268222,3.691761 -2.924393,9.341562 0.767346,12.609756 3.691755,3.268208 9.341564,2.924403 12.609775,-0.76735 3.268204,-3.691757 2.924379,-9.341563 -0.767375,-12.609773 z"
           id="path3998"
           sodipodi:nodetypes="ccccccccccccc" />
        <path
           style="fill:url(#linearGradient5235);fill-opacity:1;fill-rule:evenodd;stroke:url(#linearGradient5237);stroke-width:0.81438452;stroke-linecap:butt;stroke-linejoin:miter;stroke-miterlimit:4;stroke-opacity:1"
           d="m 56.197511,71.182322 c -4.16176,1.837805 -8.305751,3.749717 -12.478546,5.541527 -2.375265,0.435998 -2.777892,-2.545682 -3.806465,-4.037729 -1.481303,-3.32245 -4.398131,-6.228677 -8.125346,-6.706042 -6.65551,-1.014561 -14.058997,3.432139 -15.311847,10.266098 -0.817098,3.525571 -0.0039,7.329153 1.720346,10.454803 1.740535,3.11671 5.036665,4.851811 8.341081,5.854234 3.26318,0.648664 6.756403,0.709977 9.736224,-0.988684 3.129095,-1.708996 4.83167,-5.056264 7.102481,-7.686128 1.871464,-2.444519 4.076394,-4.605412 6.643594,-6.285073 2.684333,-1.196881 5.382179,0.803403 8.11449,0.100535 0.3228,-2.150101 -0.604231,-4.336912 -0.705982,-6.513472 -0.290878,-0.799641 -0.712191,-0.117399 -1.23003,-6.9e-5 z m -21.731105,0.01397 c 4.920233,2.691167 6.326939,10.048271 2.497049,14.24057 -3.362844,4.345083 -10.693696,4.488294 -14.218736,0.234495 -3.745959,-3.932072 -2.980916,-11.316395 1.875686,-14.032124 2.57292,-1.911857 6.230864,-2.103828 9.094007,-0.730317 0.248744,0.09952 0.507408,0.178869 0.751994,0.287376 z"
           id="path3999" />
        <path
           style="fill:#a5a5a5;fill-opacity:1;fill-rule:evenodd;stroke:#000000;stroke-width:2.64914203;stroke-linecap:butt;stroke-linejoin:miter;stroke-miterlimit:4;stroke-opacity:1"
           d="M 56.167723,7.0313425 C 51.595074,13.252026 45.460748,30.974663 50.216458,46.446157 l 6.518121,31.268389 c 1.594178,6.901289 9.058742,1.389318 1.394378,20.58346 -3.838581,7.999144 2.524054,16.501764 9.557729,18.500204 8.055278,2.28867 15.651767,-3.56064 17.283388,-9.30327 2.061866,-7.25698 -1.793195,-15.133065 -7.427689,-16.837467 -5.839064,-1.76252 -10.763973,1.585423 -10.982018,-1.01902 L 56.167723,7.0313425 z M 73.804069,94.431282 c 4.742817,1.347538 7.498945,6.291438 6.15141,11.034248 -1.347542,4.74285 -6.291446,7.49898 -11.034251,6.15144 -4.74282,-1.34754 -7.498972,-6.29144 -6.151425,-11.03426 1.347546,-4.742824 6.291448,-7.498966 11.034266,-6.151428 z"
           id="path4000"
           sodipodi:nodetypes="cccccccccccccc" />
        <path
           style="fill:#4a4a4a;fill-opacity:1;fill-rule:evenodd;stroke:none"
           d="m 56.734579,77.714546 c 1.594178,6.901289 9.058742,1.389318 1.394378,20.58346 -3.838581,7.999144 2.524054,16.501764 9.557729,18.500204 8.055278,2.28867 15.651766,-3.56064 17.283384,-9.30327 2.06187,-7.25698 -1.793191,-15.133065 -7.427685,-16.837467 -5.839064,-1.76252 -10.763973,1.585423 -10.982018,-1.01902 l -1.716764,-13.803695 -8.109024,1.879788 z m 17.06949,16.716736 c 4.742817,1.347538 7.498945,6.291438 6.15141,11.034248 -1.347542,4.74285 -6.291446,7.49898 -11.034251,6.15144 -4.74282,-1.34754 -7.498972,-6.29144 -6.151425,-11.03426 1.347546,-4.742824 6.291448,-7.498966 11.034266,-6.151428 z"
           id="path4001"
           sodipodi:nodetypes="ccccccccccccc" />
        <path
           style="fill:url(#linearGradient5239);fill-opacity:1;fill-rule:evenodd;stroke:url(#linearGradient5241);stroke-width:0.81438452;stroke-linecap:butt;stroke-linejoin:miter;stroke-miterlimit:4;stroke-opacity:0.57232702"
           d="m 57.846707,78.304797 c 1.010054,2.577356 4.081553,3.903577 4.26264,6.874762 0.429875,6.013404 -3.160553,11.355558 -4.075298,17.117651 -0.743163,5.64172 3.415256,10.93917 8.440536,13.10086 7.14629,3.24054 16.318522,-1.66044 17.934431,-9.25279 0.585064,-3.26547 0.04087,-6.703562 -1.52248,-9.632002 -1.758319,-3.662558 -5.900781,-5.968157 -9.954477,-5.460529 -1.935304,-0.01568 -3.980461,0.368711 -5.844663,0.223148 -2.201835,-1.721494 -1.461881,-4.83288 -2.029276,-7.262931 -0.302165,-2.392707 -0.604328,-4.785419 -0.906498,-7.178129 -2.101638,0.489985 -4.203278,0.979976 -6.304915,1.46996 z m 17.981486,16.083391 c 5.102448,2.57044 6.892421,10.020562 3.213214,14.492412 -3.193965,4.51966 -10.486566,5.01071 -14.340577,1.12519 -3.988992,-3.60957 -3.905093,-10.550743 0.134271,-14.080108 2.82802,-2.615742 7.178282,-3.229875 10.675966,-1.649551 0.08071,0.09406 0.221268,0.05234 0.317126,0.112057 z"
           id="path4006" />
        <path
           style="opacity:0.69230772;fill:url(#linearGradient5243);fill-opacity:1;fill-rule:evenodd;stroke:none"
           d="m 53.519102,13.862796 c -1.904477,6.962916 -4.346797,13.954803 -3.929433,21.279538 0.927404,11.156664 3.965551,22.017508 6.222354,32.966613 0.877296,3.532028 0.794944,4.654713 1.888109,8.086655 l 5.854446,-0.527565 C 63.084625,71.78696 63.237833,70.47855 62.699054,66.613016 60.318191,47.737525 57.937327,28.862034 55.556463,9.9865433 54.877342,11.278627 54.198222,12.570713 53.519102,13.862796 z"
           id="path195"
           sodipodi:nodetypes="cccccccc" />
      </g>
    </g>
    <path
       sodipodi:type="arc"
       style="fill:none;stroke:url(#radialGradient5255);stroke-width:25;stroke-miterlimit:4;stroke-dasharray:none"
       id="path5245"
       sodipodi:cx="252.53813"
       sodipodi:cy="435.79684"
       sodipodi:rx="210.11172"
       sodipodi:ry="210.11172"
       d="m 462.64986,435.79684 a 210.11172,210.11172 0 1 1 -420.223453,0 210.11172,210.11172 0 1 1 420.223453,0 z"
       transform="translate(-10.101525,12.121831)" />
    <path
       transform="translate(-10.101525,12.121831)"
       d="m 279.62474,227.43837 a 210.11172,210.11172 0 0 1 167.745,129.69729"
       sodipodi:ry="210.11172"
       sodipodi:rx="210.11172"
       sodipodi:cy="435.79684"
       sodipodi:cx="252.53813"
       id="use5257"
       style="fill:none;stroke:#ff9966;stroke-width:25;stroke-miterlimit:4;stroke-dasharray:none"
       sodipodi:type="arc"
       sodipodi:start="4.841664"
       sodipodi:end="5.8994595"
       sodipodi:open="true" />
  </g>
</svg>
